<?xml version="1.0" encoding="utf-8"?>
<svg viewBox="0 0 160 48" xmlns="http://www.w3.org/2000/svg">
  <style>
    /* Default: light mode colors */
    .primary { fill: #121a19; }
    .secondary { fill: #007b6e; }

    /* Dark mode colors */
    @media (prefers-color-scheme: dark) {
      .primary { fill: #ffffff; }
      .secondary { fill: #007a6d; }
    }

    .logo-text {
      font-family: ui-sans-serif, system-ui, -apple-system, BlinkMacSystemFont, 'Segoe UI', Roboto, 'Helvetica Neue', Arial, 'Noto Sans', sans-serif;
      font-size: 28px;
      font-weight: 600;
    }
  </style>

  <!-- Icon -->
  <g id="icon">
    <path class="primary" d="M27,17.7l-9-6-9,6v6.7L2,29.1V38l9,6,7-4.7L25,44l9-6V29.1l-7-4.7ZM16,35.9l-5,3.3L6,35.8V31.2l5-3.3,5,3.4Zm2-8.1-5-3.4V19.8l5-3.3,5,3.3v4.6Zm12,3.4v4.7l-5,3.3-5-3.4V31.3l5-3.4Z"></path>
    <path class="secondary" d="M33,13.7,25.1,8.4a2.1,2.1,0,0,0-2.8.5,2.1,2.1,0,0,0,.6,2.8L29,15.8v6.7l7,4.7v5.7a2,2,0,1,0,4,0V25.1l-7-4.7Z"></path>
    <path class="secondary" d="M39,16.3V9.6L31.1,4.3a2.1,2.1,0,0,0-2.8.6,2.1,2.1,0,0,0,.6,2.8l6.1,4v6.8l7,4.6v5.7a2,2,0,0,0,4,0V21Z"></path>
  </g>

  <!-- Text "pgflow" -->
  <text x="52" y="34" class="logo-text primary">pgflow</text>
</svg>
