<svg aria-roledescription="er" role="graphics-document document" viewBox="0 0 449.7414245605469 982" style="max-width: 449.741px; background-color: white;" xmlns:xlink="http://www.w3.org/1999/xlink" xmlns="http://www.w3.org/2000/svg" width="100%" id="my-svg"><style>#my-svg{font-family:"trebuchet ms",verdana,arial,sans-serif;font-size:16px;fill:#333;}#my-svg .error-icon{fill:#552222;}#my-svg .error-text{fill:#552222;stroke:#552222;}#my-svg .edge-thickness-normal{stroke-width:1px;}#my-svg .edge-thickness-thick{stroke-width:3.5px;}#my-svg .edge-pattern-solid{stroke-dasharray:0;}#my-svg .edge-thickness-invisible{stroke-width:0;fill:none;}#my-svg .edge-pattern-dashed{stroke-dasharray:3;}#my-svg .edge-pattern-dotted{stroke-dasharray:2;}#my-svg .marker{fill:#333333;stroke:#333333;}#my-svg .marker.cross{stroke:#333333;}#my-svg svg{font-family:"trebuchet ms",verdana,arial,sans-serif;font-size:16px;}#my-svg p{margin:0;}#my-svg .entityBox{fill:#ECECFF;stroke:#9370DB;}#my-svg .attributeBoxOdd{fill:#ffffff;stroke:#9370DB;}#my-svg .attributeBoxEven{fill:#f2f2f2;stroke:#9370DB;}#my-svg .relationshipLabelBox{fill:hsl(80, 100%, 96.2745098039%);opacity:0.7;background-color:hsl(80, 100%, 96.2745098039%);}#my-svg .relationshipLabelBox rect{opacity:0.5;}#my-svg .relationshipLine{stroke:#333333;}#my-svg .entityTitleText{text-anchor:middle;font-size:18px;fill:#333;}#my-svg #MD_PARENT_START{fill:#f5f5f5!important;stroke:#333333!important;stroke-width:1;}#my-svg #MD_PARENT_END{fill:#f5f5f5!important;stroke:#333333!important;stroke-width:1;}#my-svg :root{--mermaid-font-family:"trebuchet ms",verdana,arial,sans-serif;}</style><g/><defs><marker orient="auto" markerHeight="240" markerWidth="190" refY="7" refX="0" id="MD_PARENT_START"><path d="M 18,7 L9,13 L1,7 L9,1 Z"/></marker></defs><defs><marker orient="auto" markerHeight="28" markerWidth="20" refY="7" refX="19" id="MD_PARENT_END"><path d="M 18,7 L9,13 L1,7 L9,1 Z"/></marker></defs><defs><marker orient="auto" markerHeight="18" markerWidth="18" refY="9" refX="0" id="ONLY_ONE_START"><path d="M9,0 L9,18 M15,0 L15,18" fill="none" stroke="gray"/></marker></defs><defs><marker orient="auto" markerHeight="18" markerWidth="18" refY="9" refX="18" id="ONLY_ONE_END"><path d="M3,0 L3,18 M9,0 L9,18" fill="none" stroke="gray"/></marker></defs><defs><marker orient="auto" markerHeight="18" markerWidth="30" refY="9" refX="0" id="ZERO_OR_ONE_START"><circle r="6" cy="9" cx="21" fill="white" stroke="gray"/><path d="M9,0 L9,18" fill="none" stroke="gray"/></marker></defs><defs><marker orient="auto" markerHeight="18" markerWidth="30" refY="9" refX="30" id="ZERO_OR_ONE_END"><circle r="6" cy="9" cx="9" fill="white" stroke="gray"/><path d="M21,0 L21,18" fill="none" stroke="gray"/></marker></defs><defs><marker orient="auto" markerHeight="36" markerWidth="45" refY="18" refX="18" id="ONE_OR_MORE_START"><path d="M0,18 Q 18,0 36,18 Q 18,36 0,18 M42,9 L42,27" fill="none" stroke="gray"/></marker></defs><defs><marker orient="auto" markerHeight="36" markerWidth="45" refY="18" refX="27" id="ONE_OR_MORE_END"><path d="M3,9 L3,27 M9,18 Q27,0 45,18 Q27,36 9,18" fill="none" stroke="gray"/></marker></defs><defs><marker orient="auto" markerHeight="36" markerWidth="57" refY="18" refX="18" id="ZERO_OR_MORE_START"><circle r="6" cy="18" cx="48" fill="white" stroke="gray"/><path d="M0,18 Q18,0 36,18 Q18,36 0,18" fill="none" stroke="gray"/></marker></defs><defs><marker orient="auto" markerHeight="36" markerWidth="57" refY="18" refX="39" id="ZERO_OR_MORE_END"><circle r="6" cy="18" cx="9" fill="white" stroke="gray"/><path d="M21,18 Q39,0 57,18 Q39,36 21,18" fill="none" stroke="gray"/></marker></defs><path style="stroke: gray; fill: none;" marker-start="url(#ONLY_ONE_START)" marker-end="url(#ZERO_OR_MORE_END)" d="M160.633,128L150.532,136.333C140.43,144.667,120.226,161.333,110.125,178C100.023,194.667,100.023,211.333,100.023,219.667L100.023,228" class="er relationshipLine"/><path style="stroke: gray; fill: none;" marker-start="url(#ONLY_ONE_START)" marker-end="url(#ZERO_OR_MORE_END)" d="M68.473,399L65.398,407.333C62.323,415.667,56.173,432.333,58.531,454.25C60.89,476.167,71.756,503.333,77.19,516.917L82.623,530.5" class="er relationshipLine"/><path style="stroke: gray; fill: none;" marker-start="url(#ONLY_ONE_START)" marker-end="url(#ZERO_OR_MORE_END)" d="M148.023,399L152.701,407.333C157.379,415.667,166.736,432.333,163.148,454.25C159.56,476.167,143.028,503.333,134.761,516.917L126.495,530.5" class="er relationshipLine"/><path style="stroke: gray; fill: none;" marker-start="url(#ONLY_ONE_START)" marker-end="url(#ZERO_OR_MORE_END)" d="M291.552,128L301.654,136.333C311.756,144.667,331.959,161.333,342.061,179.75C352.163,198.167,352.163,218.333,352.163,228.417L352.163,238.5" class="er relationshipLine"/><path style="stroke: gray; fill: none;" marker-start="url(#ONLY_ONE_START)" marker-end="url(#ZERO_OR_MORE_END)" d="M352.163,388.5L352.163,398.583C352.163,408.667,352.163,428.833,352.163,447.25C352.163,465.667,352.163,482.333,352.163,490.667L352.163,499" class="er relationshipLine"/><path style="stroke: gray; fill: none;" marker-start="url(#ONLY_ONE_START)" marker-end="url(#ZERO_OR_MORE_END)" d="M352.163,649L352.163,657.333C352.163,665.667,352.163,682.333,352.163,699C352.163,715.667,352.163,732.333,352.163,740.667L352.163,749" class="er relationshipLine"/><g transform="translate(153.99402618408203,20 )" id="entity-flows-f18f0530-88df-544b-a742-e42ede14479d"><rect height="108" width="144.19744873046875" y="0" x="0" class="er entityBox"/><text style="dominant-baseline: middle; text-anchor: middle; font-size: 12px;" transform="translate(72.09872436523438,12)" y="0" x="0" id="text-entity-flows-f18f0530-88df-544b-a742-e42ede14479d" class="er entityLabel">flows</text><rect height="21" width="26.5899658203125" y="24" x="0" class="er attributeBoxOdd"/><text style="dominant-baseline: middle; font-size: 10.2px;" transform="translate(5,34.5)" y="0" x="0" id="text-entity-flows-f18f0530-88df-544b-a742-e42ede14479d-attr-1-type" class="er entityLabel">text</text><rect height="21" width="93.8125" y="24" x="26.5899658203125" class="er attributeBoxOdd"/><text style="dominant-baseline: middle; font-size: 10.2px;" transform="translate(31.5899658203125,34.5)" y="0" x="0" id="text-entity-flows-f18f0530-88df-544b-a742-e42ede14479d-attr-1-name" class="er entityLabel">flow_slug</text><rect height="21" width="23.79498291015625" y="24" x="120.4024658203125" class="er attributeBoxOdd"/><text style="dominant-baseline: middle; font-size: 10.2px;" transform="translate(125.4024658203125,34.5)" y="0" x="0" id="text-entity-flows-f18f0530-88df-544b-a742-e42ede14479d-attr-1-key" class="er entityLabel">PK</text><rect height="21" width="26.5899658203125" y="45" x="0" class="er attributeBoxEven"/><text style="dominant-baseline: middle; font-size: 10.2px;" transform="translate(5,55.5)" y="0" x="0" id="text-entity-flows-f18f0530-88df-544b-a742-e42ede14479d-attr-2-type" class="er entityLabel">int</text><rect height="21" width="93.8125" y="45" x="26.5899658203125" class="er attributeBoxEven"/><text style="dominant-baseline: middle; font-size: 10.2px;" transform="translate(31.5899658203125,55.5)" y="0" x="0" id="text-entity-flows-f18f0530-88df-544b-a742-e42ede14479d-attr-2-name" class="er entityLabel">opt_max_attempts</text><rect height="21" width="23.79498291015625" y="45" x="120.4024658203125" class="er attributeBoxEven"/><text style="dominant-baseline: middle; font-size: 10.2px;" transform="translate(125.4024658203125,55.5)" y="0" x="0" id="text-entity-flows-f18f0530-88df-544b-a742-e42ede14479d-attr-2-key" class="er entityLabel"/><rect height="21" width="26.5899658203125" y="66" x="0" class="er attributeBoxOdd"/><text style="dominant-baseline: middle; font-size: 10.2px;" transform="translate(5,76.5)" y="0" x="0" id="text-entity-flows-f18f0530-88df-544b-a742-e42ede14479d-attr-3-type" class="er entityLabel">int</text><rect height="21" width="93.8125" y="66" x="26.5899658203125" class="er attributeBoxOdd"/><text style="dominant-baseline: middle; font-size: 10.2px;" transform="translate(31.5899658203125,76.5)" y="0" x="0" id="text-entity-flows-f18f0530-88df-544b-a742-e42ede14479d-attr-3-name" class="er entityLabel">opt_base_delay</text><rect height="21" width="23.79498291015625" y="66" x="120.4024658203125" class="er attributeBoxOdd"/><text style="dominant-baseline: middle; font-size: 10.2px;" transform="translate(125.4024658203125,76.5)" y="0" x="0" id="text-entity-flows-f18f0530-88df-544b-a742-e42ede14479d-attr-3-key" class="er entityLabel"/><rect height="21" width="26.5899658203125" y="87" x="0" class="er attributeBoxEven"/><text style="dominant-baseline: middle; font-size: 10.2px;" transform="translate(5,97.5)" y="0" x="0" id="text-entity-flows-f18f0530-88df-544b-a742-e42ede14479d-attr-4-type" class="er entityLabel">int</text><rect height="21" width="93.8125" y="87" x="26.5899658203125" class="er attributeBoxEven"/><text style="dominant-baseline: middle; font-size: 10.2px;" transform="translate(31.5899658203125,97.5)" y="0" x="0" id="text-entity-flows-f18f0530-88df-544b-a742-e42ede14479d-attr-4-name" class="er entityLabel">opt_timeout</text><rect height="21" width="23.79498291015625" y="87" x="120.4024658203125" class="er attributeBoxEven"/><text style="dominant-baseline: middle; font-size: 10.2px;" transform="translate(125.4024658203125,97.5)" y="0" x="0" id="text-entity-flows-f18f0530-88df-544b-a742-e42ede14479d-attr-4-key" class="er entityLabel"/></g><g transform="translate(20,228 )" id="entity-steps-9f52b7fe-5175-560c-8193-e79d92ebca66"><rect height="171" width="160.0457763671875" y="0" x="0" class="er entityBox"/><text style="dominant-baseline: middle; text-anchor: middle; font-size: 12px;" transform="translate(80.02288818359375,12)" y="0" x="0" id="text-entity-steps-9f52b7fe-5175-560c-8193-e79d92ebca66" class="er entityLabel">steps</text><rect height="21" width="26.5899658203125" y="24" x="0" class="er attributeBoxOdd"/><text style="dominant-baseline: middle; font-size: 10.2px;" transform="translate(5,34.5)" y="0" x="0" id="text-entity-steps-9f52b7fe-5175-560c-8193-e79d92ebca66-attr-1-type" class="er entityLabel">text</text><rect height="21" width="93.8125" y="24" x="26.5899658203125" class="er attributeBoxOdd"/><text style="dominant-baseline: middle; font-size: 10.2px;" transform="translate(31.5899658203125,34.5)" y="0" x="0" id="text-entity-steps-9f52b7fe-5175-560c-8193-e79d92ebca66-attr-1-name" class="er entityLabel">flow_slug</text><rect height="21" width="39.643310546875" y="24" x="120.4024658203125" class="er attributeBoxOdd"/><text style="dominant-baseline: middle; font-size: 10.2px;" transform="translate(125.4024658203125,34.5)" y="0" x="0" id="text-entity-steps-9f52b7fe-5175-560c-8193-e79d92ebca66-attr-1-key" class="er entityLabel">PK,FK</text><rect height="21" width="26.5899658203125" y="45" x="0" class="er attributeBoxEven"/><text style="dominant-baseline: middle; font-size: 10.2px;" transform="translate(5,55.5)" y="0" x="0" id="text-entity-steps-9f52b7fe-5175-560c-8193-e79d92ebca66-attr-2-type" class="er entityLabel">text</text><rect height="21" width="93.8125" y="45" x="26.5899658203125" class="er attributeBoxEven"/><text style="dominant-baseline: middle; font-size: 10.2px;" transform="translate(31.5899658203125,55.5)" y="0" x="0" id="text-entity-steps-9f52b7fe-5175-560c-8193-e79d92ebca66-attr-2-name" class="er entityLabel">step_slug</text><rect height="21" width="39.643310546875" y="45" x="120.4024658203125" class="er attributeBoxEven"/><text style="dominant-baseline: middle; font-size: 10.2px;" transform="translate(125.4024658203125,55.5)" y="0" x="0" id="text-entity-steps-9f52b7fe-5175-560c-8193-e79d92ebca66-attr-2-key" class="er entityLabel">PK</text><rect height="21" width="26.5899658203125" y="66" x="0" class="er attributeBoxOdd"/><text style="dominant-baseline: middle; font-size: 10.2px;" transform="translate(5,76.5)" y="0" x="0" id="text-entity-steps-9f52b7fe-5175-560c-8193-e79d92ebca66-attr-3-type" class="er entityLabel">text</text><rect height="21" width="93.8125" y="66" x="26.5899658203125" class="er attributeBoxOdd"/><text style="dominant-baseline: middle; font-size: 10.2px;" transform="translate(31.5899658203125,76.5)" y="0" x="0" id="text-entity-steps-9f52b7fe-5175-560c-8193-e79d92ebca66-attr-3-name" class="er entityLabel">step_type</text><rect height="21" width="39.643310546875" y="66" x="120.4024658203125" class="er attributeBoxOdd"/><text style="dominant-baseline: middle; font-size: 10.2px;" transform="translate(125.4024658203125,76.5)" y="0" x="0" id="text-entity-steps-9f52b7fe-5175-560c-8193-e79d92ebca66-attr-3-key" class="er entityLabel"/><rect height="21" width="26.5899658203125" y="87" x="0" class="er attributeBoxEven"/><text style="dominant-baseline: middle; font-size: 10.2px;" transform="translate(5,97.5)" y="0" x="0" id="text-entity-steps-9f52b7fe-5175-560c-8193-e79d92ebca66-attr-4-type" class="er entityLabel">int</text><rect height="21" width="93.8125" y="87" x="26.5899658203125" class="er attributeBoxEven"/><text style="dominant-baseline: middle; font-size: 10.2px;" transform="translate(31.5899658203125,97.5)" y="0" x="0" id="text-entity-steps-9f52b7fe-5175-560c-8193-e79d92ebca66-attr-4-name" class="er entityLabel">deps_count</text><rect height="21" width="39.643310546875" y="87" x="120.4024658203125" class="er attributeBoxEven"/><text style="dominant-baseline: middle; font-size: 10.2px;" transform="translate(125.4024658203125,97.5)" y="0" x="0" id="text-entity-steps-9f52b7fe-5175-560c-8193-e79d92ebca66-attr-4-key" class="er entityLabel"/><rect height="21" width="26.5899658203125" y="108" x="0" class="er attributeBoxOdd"/><text style="dominant-baseline: middle; font-size: 10.2px;" transform="translate(5,118.5)" y="0" x="0" id="text-entity-steps-9f52b7fe-5175-560c-8193-e79d92ebca66-attr-5-type" class="er entityLabel">int</text><rect height="21" width="93.8125" y="108" x="26.5899658203125" class="er attributeBoxOdd"/><text style="dominant-baseline: middle; font-size: 10.2px;" transform="translate(31.5899658203125,118.5)" y="0" x="0" id="text-entity-steps-9f52b7fe-5175-560c-8193-e79d92ebca66-attr-5-name" class="er entityLabel">opt_max_attempts</text><rect height="21" width="39.643310546875" y="108" x="120.4024658203125" class="er attributeBoxOdd"/><text style="dominant-baseline: middle; font-size: 10.2px;" transform="translate(125.4024658203125,118.5)" y="0" x="0" id="text-entity-steps-9f52b7fe-5175-560c-8193-e79d92ebca66-attr-5-key" class="er entityLabel"/><rect height="21" width="26.5899658203125" y="129" x="0" class="er attributeBoxEven"/><text style="dominant-baseline: middle; font-size: 10.2px;" transform="translate(5,139.5)" y="0" x="0" id="text-entity-steps-9f52b7fe-5175-560c-8193-e79d92ebca66-attr-6-type" class="er entityLabel">int</text><rect height="21" width="93.8125" y="129" x="26.5899658203125" class="er attributeBoxEven"/><text style="dominant-baseline: middle; font-size: 10.2px;" transform="translate(31.5899658203125,139.5)" y="0" x="0" id="text-entity-steps-9f52b7fe-5175-560c-8193-e79d92ebca66-attr-6-name" class="er entityLabel">opt_base_delay</text><rect height="21" width="39.643310546875" y="129" x="120.4024658203125" class="er attributeBoxEven"/><text style="dominant-baseline: middle; font-size: 10.2px;" transform="translate(125.4024658203125,139.5)" y="0" x="0" id="text-entity-steps-9f52b7fe-5175-560c-8193-e79d92ebca66-attr-6-key" class="er entityLabel"/><rect height="21" width="26.5899658203125" y="150" x="0" class="er attributeBoxOdd"/><text style="dominant-baseline: middle; font-size: 10.2px;" transform="translate(5,160.5)" y="0" x="0" id="text-entity-steps-9f52b7fe-5175-560c-8193-e79d92ebca66-attr-7-type" class="er entityLabel">int</text><rect height="21" width="93.8125" y="150" x="26.5899658203125" class="er attributeBoxOdd"/><text style="dominant-baseline: middle; font-size: 10.2px;" transform="translate(31.5899658203125,160.5)" y="0" x="0" id="text-entity-steps-9f52b7fe-5175-560c-8193-e79d92ebca66-attr-7-name" class="er entityLabel">opt_timeout</text><rect height="21" width="39.643310546875" y="150" x="120.4024658203125" class="er attributeBoxOdd"/><text style="dominant-baseline: middle; font-size: 10.2px;" transform="translate(125.4024658203125,160.5)" y="0" x="0" id="text-entity-steps-9f52b7fe-5175-560c-8193-e79d92ebca66-attr-7-key" class="er entityLabel"/></g><g transform="translate(39.93402099609375,530.5 )" id="entity-deps-e5301c36-0cf6-5c3a-a840-98a74414ff8e"><rect height="87" width="120.177734375" y="0" x="0" class="er entityBox"/><text style="dominant-baseline: middle; text-anchor: middle; font-size: 12px;" transform="translate(60.0888671875,12)" y="0" x="0" id="text-entity-deps-e5301c36-0cf6-5c3a-a840-98a74414ff8e" class="er entityLabel">deps</text><rect height="21" width="26.5899658203125" y="24" x="0" class="er attributeBoxOdd"/><text style="dominant-baseline: middle; font-size: 10.2px;" transform="translate(5,34.5)" y="0" x="0" id="text-entity-deps-e5301c36-0cf6-5c3a-a840-98a74414ff8e-attr-1-type" class="er entityLabel">text</text><rect height="21" width="53.9444580078125" y="24" x="26.5899658203125" class="er attributeBoxOdd"/><text style="dominant-baseline: middle; font-size: 10.2px;" transform="translate(31.5899658203125,34.5)" y="0" x="0" id="text-entity-deps-e5301c36-0cf6-5c3a-a840-98a74414ff8e-attr-1-name" class="er entityLabel">flow_slug</text><rect height="21" width="39.643310546875" y="24" x="80.534423828125" class="er attributeBoxOdd"/><text style="dominant-baseline: middle; font-size: 10.2px;" transform="translate(85.534423828125,34.5)" y="0" x="0" id="text-entity-deps-e5301c36-0cf6-5c3a-a840-98a74414ff8e-attr-1-key" class="er entityLabel">PK,FK</text><rect height="21" width="26.5899658203125" y="45" x="0" class="er attributeBoxEven"/><text style="dominant-baseline: middle; font-size: 10.2px;" transform="translate(5,55.5)" y="0" x="0" id="text-entity-deps-e5301c36-0cf6-5c3a-a840-98a74414ff8e-attr-2-type" class="er entityLabel">text</text><rect height="21" width="53.9444580078125" y="45" x="26.5899658203125" class="er attributeBoxEven"/><text style="dominant-baseline: middle; font-size: 10.2px;" transform="translate(31.5899658203125,55.5)" y="0" x="0" id="text-entity-deps-e5301c36-0cf6-5c3a-a840-98a74414ff8e-attr-2-name" class="er entityLabel">dep_slug</text><rect height="21" width="39.643310546875" y="45" x="80.534423828125" class="er attributeBoxEven"/><text style="dominant-baseline: middle; font-size: 10.2px;" transform="translate(85.534423828125,55.5)" y="0" x="0" id="text-entity-deps-e5301c36-0cf6-5c3a-a840-98a74414ff8e-attr-2-key" class="er entityLabel">PK,FK</text><rect height="21" width="26.5899658203125" y="66" x="0" class="er attributeBoxOdd"/><text style="dominant-baseline: middle; font-size: 10.2px;" transform="translate(5,76.5)" y="0" x="0" id="text-entity-deps-e5301c36-0cf6-5c3a-a840-98a74414ff8e-attr-3-type" class="er entityLabel">text</text><rect height="21" width="53.9444580078125" y="66" x="26.5899658203125" class="er attributeBoxOdd"/><text style="dominant-baseline: middle; font-size: 10.2px;" transform="translate(31.5899658203125,76.5)" y="0" x="0" id="text-entity-deps-e5301c36-0cf6-5c3a-a840-98a74414ff8e-attr-3-name" class="er entityLabel">step_slug</text><rect height="21" width="39.643310546875" y="66" x="80.534423828125" class="er attributeBoxOdd"/><text style="dominant-baseline: middle; font-size: 10.2px;" transform="translate(85.534423828125,76.5)" y="0" x="0" id="text-entity-deps-e5301c36-0cf6-5c3a-a840-98a74414ff8e-attr-3-key" class="er entityLabel">PK,FK</text></g><g transform="translate(280.0457763671875,238.5 )" id="entity-runs-75ffb4dd-6be8-5a8d-bc72-ade53caeacdf"><rect height="150" width="144.23367309570312" y="0" x="0" class="er entityBox"/><text style="dominant-baseline: middle; text-anchor: middle; font-size: 12px;" transform="translate(72.11683654785156,12)" y="0" x="0" id="text-entity-runs-75ffb4dd-6be8-5a8d-bc72-ade53caeacdf" class="er entityLabel">runs</text><rect height="21" width="35.688690185546875" y="24" x="0" class="er attributeBoxOdd"/><text style="dominant-baseline: middle; font-size: 10.2px;" transform="translate(5,34.5)" y="0" x="0" id="text-entity-runs-75ffb4dd-6be8-5a8d-bc72-ade53caeacdf-attr-1-type" class="er entityLabel">uuid</text><rect height="21" width="84.75" y="24" x="35.688690185546875" class="er attributeBoxOdd"/><text style="dominant-baseline: middle; font-size: 10.2px;" transform="translate(40.688690185546875,34.5)" y="0" x="0" id="text-entity-runs-75ffb4dd-6be8-5a8d-bc72-ade53caeacdf-attr-1-name" class="er entityLabel">run_id</text><rect height="21" width="23.79498291015625" y="24" x="120.43869018554688" class="er attributeBoxOdd"/><text style="dominant-baseline: middle; font-size: 10.2px;" transform="translate(125.43869018554688,34.5)" y="0" x="0" id="text-entity-runs-75ffb4dd-6be8-5a8d-bc72-ade53caeacdf-attr-1-key" class="er entityLabel">PK</text><rect height="21" width="35.688690185546875" y="45" x="0" class="er attributeBoxEven"/><text style="dominant-baseline: middle; font-size: 10.2px;" transform="translate(5,55.5)" y="0" x="0" id="text-entity-runs-75ffb4dd-6be8-5a8d-bc72-ade53caeacdf-attr-2-type" class="er entityLabel">text</text><rect height="21" width="84.75" y="45" x="35.688690185546875" class="er attributeBoxEven"/><text style="dominant-baseline: middle; font-size: 10.2px;" transform="translate(40.688690185546875,55.5)" y="0" x="0" id="text-entity-runs-75ffb4dd-6be8-5a8d-bc72-ade53caeacdf-attr-2-name" class="er entityLabel">flow_slug</text><rect height="21" width="23.79498291015625" y="45" x="120.43869018554688" class="er attributeBoxEven"/><text style="dominant-baseline: middle; font-size: 10.2px;" transform="translate(125.43869018554688,55.5)" y="0" x="0" id="text-entity-runs-75ffb4dd-6be8-5a8d-bc72-ade53caeacdf-attr-2-key" class="er entityLabel">FK</text><rect height="21" width="35.688690185546875" y="66" x="0" class="er attributeBoxOdd"/><text style="dominant-baseline: middle; font-size: 10.2px;" transform="translate(5,76.5)" y="0" x="0" id="text-entity-runs-75ffb4dd-6be8-5a8d-bc72-ade53caeacdf-attr-3-type" class="er entityLabel">text</text><rect height="21" width="84.75" y="66" x="35.688690185546875" class="er attributeBoxOdd"/><text style="dominant-baseline: middle; font-size: 10.2px;" transform="translate(40.688690185546875,76.5)" y="0" x="0" id="text-entity-runs-75ffb4dd-6be8-5a8d-bc72-ade53caeacdf-attr-3-name" class="er entityLabel">status</text><rect height="21" width="23.79498291015625" y="66" x="120.43869018554688" class="er attributeBoxOdd"/><text style="dominant-baseline: middle; font-size: 10.2px;" transform="translate(125.43869018554688,76.5)" y="0" x="0" id="text-entity-runs-75ffb4dd-6be8-5a8d-bc72-ade53caeacdf-attr-3-key" class="er entityLabel"/><rect height="21" width="35.688690185546875" y="87" x="0" class="er attributeBoxEven"/><text style="dominant-baseline: middle; font-size: 10.2px;" transform="translate(5,97.5)" y="0" x="0" id="text-entity-runs-75ffb4dd-6be8-5a8d-bc72-ade53caeacdf-attr-4-type" class="er entityLabel">jsonb</text><rect height="21" width="84.75" y="87" x="35.688690185546875" class="er attributeBoxEven"/><text style="dominant-baseline: middle; font-size: 10.2px;" transform="translate(40.688690185546875,97.5)" y="0" x="0" id="text-entity-runs-75ffb4dd-6be8-5a8d-bc72-ade53caeacdf-attr-4-name" class="er entityLabel">input</text><rect height="21" width="23.79498291015625" y="87" x="120.43869018554688" class="er attributeBoxEven"/><text style="dominant-baseline: middle; font-size: 10.2px;" transform="translate(125.43869018554688,97.5)" y="0" x="0" id="text-entity-runs-75ffb4dd-6be8-5a8d-bc72-ade53caeacdf-attr-4-key" class="er entityLabel"/><rect height="21" width="35.688690185546875" y="108" x="0" class="er attributeBoxOdd"/><text style="dominant-baseline: middle; font-size: 10.2px;" transform="translate(5,118.5)" y="0" x="0" id="text-entity-runs-75ffb4dd-6be8-5a8d-bc72-ade53caeacdf-attr-5-type" class="er entityLabel">jsonb</text><rect height="21" width="84.75" y="108" x="35.688690185546875" class="er attributeBoxOdd"/><text style="dominant-baseline: middle; font-size: 10.2px;" transform="translate(40.688690185546875,118.5)" y="0" x="0" id="text-entity-runs-75ffb4dd-6be8-5a8d-bc72-ade53caeacdf-attr-5-name" class="er entityLabel">output</text><rect height="21" width="23.79498291015625" y="108" x="120.43869018554688" class="er attributeBoxOdd"/><text style="dominant-baseline: middle; font-size: 10.2px;" transform="translate(125.43869018554688,118.5)" y="0" x="0" id="text-entity-runs-75ffb4dd-6be8-5a8d-bc72-ade53caeacdf-attr-5-key" class="er entityLabel"/><rect height="21" width="35.688690185546875" y="129" x="0" class="er attributeBoxEven"/><text style="dominant-baseline: middle; font-size: 10.2px;" transform="translate(5,139.5)" y="0" x="0" id="text-entity-runs-75ffb4dd-6be8-5a8d-bc72-ade53caeacdf-attr-6-type" class="er entityLabel">int</text><rect height="21" width="84.75" y="129" x="35.688690185546875" class="er attributeBoxEven"/><text style="dominant-baseline: middle; font-size: 10.2px;" transform="translate(40.688690185546875,139.5)" y="0" x="0" id="text-entity-runs-75ffb4dd-6be8-5a8d-bc72-ade53caeacdf-attr-6-name" class="er entityLabel">remaining_steps</text><rect height="21" width="23.79498291015625" y="129" x="120.43869018554688" class="er attributeBoxEven"/><text style="dominant-baseline: middle; font-size: 10.2px;" transform="translate(125.43869018554688,139.5)" y="0" x="0" id="text-entity-runs-75ffb4dd-6be8-5a8d-bc72-ade53caeacdf-attr-6-key" class="er entityLabel"/></g><g transform="translate(275.4497375488281,499 )" id="entity-stepstates-d5fb431d-8c65-5bd1-8e0a-6a399ad2c7c4"><rect height="150" width="153.42575073242188" y="0" x="0" class="er entityBox"/><text style="dominant-baseline: middle; text-anchor: middle; font-size: 12px;" transform="translate(76.71287536621094,12)" y="0" x="0" id="text-entity-stepstates-d5fb431d-8c65-5bd1-8e0a-6a399ad2c7c4" class="er entityLabel">step_states</text><rect height="21" width="29.594940185546875" y="24" x="0" class="er attributeBoxOdd"/><text style="dominant-baseline: middle; font-size: 10.2px;" transform="translate(5,34.5)" y="0" x="0" id="text-entity-stepstates-d5fb431d-8c65-5bd1-8e0a-6a399ad2c7c4-attr-1-type" class="er entityLabel">text</text><rect height="21" width="84.1875" y="24" x="29.594940185546875" class="er attributeBoxOdd"/><text style="dominant-baseline: middle; font-size: 10.2px;" transform="translate(34.594940185546875,34.5)" y="0" x="0" id="text-entity-stepstates-d5fb431d-8c65-5bd1-8e0a-6a399ad2c7c4-attr-1-name" class="er entityLabel">flow_slug</text><rect height="21" width="39.643310546875" y="24" x="113.78244018554688" class="er attributeBoxOdd"/><text style="dominant-baseline: middle; font-size: 10.2px;" transform="translate(118.78244018554688,34.5)" y="0" x="0" id="text-entity-stepstates-d5fb431d-8c65-5bd1-8e0a-6a399ad2c7c4-attr-1-key" class="er entityLabel">FK</text><rect height="21" width="29.594940185546875" y="45" x="0" class="er attributeBoxEven"/><text style="dominant-baseline: middle; font-size: 10.2px;" transform="translate(5,55.5)" y="0" x="0" id="text-entity-stepstates-d5fb431d-8c65-5bd1-8e0a-6a399ad2c7c4-attr-2-type" class="er entityLabel">uuid</text><rect height="21" width="84.1875" y="45" x="29.594940185546875" class="er attributeBoxEven"/><text style="dominant-baseline: middle; font-size: 10.2px;" transform="translate(34.594940185546875,55.5)" y="0" x="0" id="text-entity-stepstates-d5fb431d-8c65-5bd1-8e0a-6a399ad2c7c4-attr-2-name" class="er entityLabel">run_id</text><rect height="21" width="39.643310546875" y="45" x="113.78244018554688" class="er attributeBoxEven"/><text style="dominant-baseline: middle; font-size: 10.2px;" transform="translate(118.78244018554688,55.5)" y="0" x="0" id="text-entity-stepstates-d5fb431d-8c65-5bd1-8e0a-6a399ad2c7c4-attr-2-key" class="er entityLabel">PK,FK</text><rect height="21" width="29.594940185546875" y="66" x="0" class="er attributeBoxOdd"/><text style="dominant-baseline: middle; font-size: 10.2px;" transform="translate(5,76.5)" y="0" x="0" id="text-entity-stepstates-d5fb431d-8c65-5bd1-8e0a-6a399ad2c7c4-attr-3-type" class="er entityLabel">text</text><rect height="21" width="84.1875" y="66" x="29.594940185546875" class="er attributeBoxOdd"/><text style="dominant-baseline: middle; font-size: 10.2px;" transform="translate(34.594940185546875,76.5)" y="0" x="0" id="text-entity-stepstates-d5fb431d-8c65-5bd1-8e0a-6a399ad2c7c4-attr-3-name" class="er entityLabel">step_slug</text><rect height="21" width="39.643310546875" y="66" x="113.78244018554688" class="er attributeBoxOdd"/><text style="dominant-baseline: middle; font-size: 10.2px;" transform="translate(118.78244018554688,76.5)" y="0" x="0" id="text-entity-stepstates-d5fb431d-8c65-5bd1-8e0a-6a399ad2c7c4-attr-3-key" class="er entityLabel">PK,FK</text><rect height="21" width="29.594940185546875" y="87" x="0" class="er attributeBoxEven"/><text style="dominant-baseline: middle; font-size: 10.2px;" transform="translate(5,97.5)" y="0" x="0" id="text-entity-stepstates-d5fb431d-8c65-5bd1-8e0a-6a399ad2c7c4-attr-4-type" class="er entityLabel">text</text><rect height="21" width="84.1875" y="87" x="29.594940185546875" class="er attributeBoxEven"/><text style="dominant-baseline: middle; font-size: 10.2px;" transform="translate(34.594940185546875,97.5)" y="0" x="0" id="text-entity-stepstates-d5fb431d-8c65-5bd1-8e0a-6a399ad2c7c4-attr-4-name" class="er entityLabel">status</text><rect height="21" width="39.643310546875" y="87" x="113.78244018554688" class="er attributeBoxEven"/><text style="dominant-baseline: middle; font-size: 10.2px;" transform="translate(118.78244018554688,97.5)" y="0" x="0" id="text-entity-stepstates-d5fb431d-8c65-5bd1-8e0a-6a399ad2c7c4-attr-4-key" class="er entityLabel"/><rect height="21" width="29.594940185546875" y="108" x="0" class="er attributeBoxOdd"/><text style="dominant-baseline: middle; font-size: 10.2px;" transform="translate(5,118.5)" y="0" x="0" id="text-entity-stepstates-d5fb431d-8c65-5bd1-8e0a-6a399ad2c7c4-attr-5-type" class="er entityLabel">int</text><rect height="21" width="84.1875" y="108" x="29.594940185546875" class="er attributeBoxOdd"/><text style="dominant-baseline: middle; font-size: 10.2px;" transform="translate(34.594940185546875,118.5)" y="0" x="0" id="text-entity-stepstates-d5fb431d-8c65-5bd1-8e0a-6a399ad2c7c4-attr-5-name" class="er entityLabel">remaining_tasks</text><rect height="21" width="39.643310546875" y="108" x="113.78244018554688" class="er attributeBoxOdd"/><text style="dominant-baseline: middle; font-size: 10.2px;" transform="translate(118.78244018554688,118.5)" y="0" x="0" id="text-entity-stepstates-d5fb431d-8c65-5bd1-8e0a-6a399ad2c7c4-attr-5-key" class="er entityLabel"/><rect height="21" width="29.594940185546875" y="129" x="0" class="er attributeBoxEven"/><text style="dominant-baseline: middle; font-size: 10.2px;" transform="translate(5,139.5)" y="0" x="0" id="text-entity-stepstates-d5fb431d-8c65-5bd1-8e0a-6a399ad2c7c4-attr-6-type" class="er entityLabel">int</text><rect height="21" width="84.1875" y="129" x="29.594940185546875" class="er attributeBoxEven"/><text style="dominant-baseline: middle; font-size: 10.2px;" transform="translate(34.594940185546875,139.5)" y="0" x="0" id="text-entity-stepstates-d5fb431d-8c65-5bd1-8e0a-6a399ad2c7c4-attr-6-name" class="er entityLabel">remaining_deps</text><rect height="21" width="39.643310546875" y="129" x="113.78244018554688" class="er attributeBoxEven"/><text style="dominant-baseline: middle; font-size: 10.2px;" transform="translate(118.78244018554688,139.5)" y="0" x="0" id="text-entity-stepstates-d5fb431d-8c65-5bd1-8e0a-6a399ad2c7c4-attr-6-key" class="er entityLabel"/></g><g transform="translate(274.58380126953125,749 )" id="entity-steptasks-1b58e334-b1db-5be4-8d8a-3602898074c8"><rect height="213" width="155.15762329101562" y="0" x="0" class="er entityBox"/><text style="dominant-baseline: middle; text-anchor: middle; font-size: 12px;" transform="translate(77.57881164550781,12)" y="0" x="0" id="text-entity-steptasks-1b58e334-b1db-5be4-8d8a-3602898074c8" class="er entityLabel">step_tasks</text><rect height="21" width="35.688690185546875" y="24" x="0" class="er attributeBoxOdd"/><text style="dominant-baseline: middle; font-size: 10.2px;" transform="translate(5,34.5)" y="0" x="0" id="text-entity-steptasks-1b58e334-b1db-5be4-8d8a-3602898074c8-attr-1-type" class="er entityLabel">text</text><rect height="21" width="79.82562255859375" y="24" x="35.688690185546875" class="er attributeBoxOdd"/><text style="dominant-baseline: middle; font-size: 10.2px;" transform="translate(40.688690185546875,34.5)" y="0" x="0" id="text-entity-steptasks-1b58e334-b1db-5be4-8d8a-3602898074c8-attr-1-name" class="er entityLabel">flow_slug</text><rect height="21" width="39.643310546875" y="24" x="115.51431274414062" class="er attributeBoxOdd"/><text style="dominant-baseline: middle; font-size: 10.2px;" transform="translate(120.51431274414062,34.5)" y="0" x="0" id="text-entity-steptasks-1b58e334-b1db-5be4-8d8a-3602898074c8-attr-1-key" class="er entityLabel">FK</text><rect height="21" width="35.688690185546875" y="45" x="0" class="er attributeBoxEven"/><text style="dominant-baseline: middle; font-size: 10.2px;" transform="translate(5,55.5)" y="0" x="0" id="text-entity-steptasks-1b58e334-b1db-5be4-8d8a-3602898074c8-attr-2-type" class="er entityLabel">uuid</text><rect height="21" width="79.82562255859375" y="45" x="35.688690185546875" class="er attributeBoxEven"/><text style="dominant-baseline: middle; font-size: 10.2px;" transform="translate(40.688690185546875,55.5)" y="0" x="0" id="text-entity-steptasks-1b58e334-b1db-5be4-8d8a-3602898074c8-attr-2-name" class="er entityLabel">run_id</text><rect height="21" width="39.643310546875" y="45" x="115.51431274414062" class="er attributeBoxEven"/><text style="dominant-baseline: middle; font-size: 10.2px;" transform="translate(120.51431274414062,55.5)" y="0" x="0" id="text-entity-steptasks-1b58e334-b1db-5be4-8d8a-3602898074c8-attr-2-key" class="er entityLabel">PK,FK</text><rect height="21" width="35.688690185546875" y="66" x="0" class="er attributeBoxOdd"/><text style="dominant-baseline: middle; font-size: 10.2px;" transform="translate(5,76.5)" y="0" x="0" id="text-entity-steptasks-1b58e334-b1db-5be4-8d8a-3602898074c8-attr-3-type" class="er entityLabel">text</text><rect height="21" width="79.82562255859375" y="66" x="35.688690185546875" class="er attributeBoxOdd"/><text style="dominant-baseline: middle; font-size: 10.2px;" transform="translate(40.688690185546875,76.5)" y="0" x="0" id="text-entity-steptasks-1b58e334-b1db-5be4-8d8a-3602898074c8-attr-3-name" class="er entityLabel">step_slug</text><rect height="21" width="39.643310546875" y="66" x="115.51431274414062" class="er attributeBoxOdd"/><text style="dominant-baseline: middle; font-size: 10.2px;" transform="translate(120.51431274414062,76.5)" y="0" x="0" id="text-entity-steptasks-1b58e334-b1db-5be4-8d8a-3602898074c8-attr-3-key" class="er entityLabel">PK,FK</text><rect height="21" width="35.688690185546875" y="87" x="0" class="er attributeBoxEven"/><text style="dominant-baseline: middle; font-size: 10.2px;" transform="translate(5,97.5)" y="0" x="0" id="text-entity-steptasks-1b58e334-b1db-5be4-8d8a-3602898074c8-attr-4-type" class="er entityLabel">bigint</text><rect height="21" width="79.82562255859375" y="87" x="35.688690185546875" class="er attributeBoxEven"/><text style="dominant-baseline: middle; font-size: 10.2px;" transform="translate(40.688690185546875,97.5)" y="0" x="0" id="text-entity-steptasks-1b58e334-b1db-5be4-8d8a-3602898074c8-attr-4-name" class="er entityLabel">message_id</text><rect height="21" width="39.643310546875" y="87" x="115.51431274414062" class="er attributeBoxEven"/><text style="dominant-baseline: middle; font-size: 10.2px;" transform="translate(120.51431274414062,97.5)" y="0" x="0" id="text-entity-steptasks-1b58e334-b1db-5be4-8d8a-3602898074c8-attr-4-key" class="er entityLabel"/><rect height="21" width="35.688690185546875" y="108" x="0" class="er attributeBoxOdd"/><text style="dominant-baseline: middle; font-size: 10.2px;" transform="translate(5,118.5)" y="0" x="0" id="text-entity-steptasks-1b58e334-b1db-5be4-8d8a-3602898074c8-attr-5-type" class="er entityLabel">int</text><rect height="21" width="79.82562255859375" y="108" x="35.688690185546875" class="er attributeBoxOdd"/><text style="dominant-baseline: middle; font-size: 10.2px;" transform="translate(40.688690185546875,118.5)" y="0" x="0" id="text-entity-steptasks-1b58e334-b1db-5be4-8d8a-3602898074c8-attr-5-name" class="er entityLabel">task_index</text><rect height="21" width="39.643310546875" y="108" x="115.51431274414062" class="er attributeBoxOdd"/><text style="dominant-baseline: middle; font-size: 10.2px;" transform="translate(120.51431274414062,118.5)" y="0" x="0" id="text-entity-steptasks-1b58e334-b1db-5be4-8d8a-3602898074c8-attr-5-key" class="er entityLabel">PK</text><rect height="21" width="35.688690185546875" y="129" x="0" class="er attributeBoxEven"/><text style="dominant-baseline: middle; font-size: 10.2px;" transform="translate(5,139.5)" y="0" x="0" id="text-entity-steptasks-1b58e334-b1db-5be4-8d8a-3602898074c8-attr-6-type" class="er entityLabel">text</text><rect height="21" width="79.82562255859375" y="129" x="35.688690185546875" class="er attributeBoxEven"/><text style="dominant-baseline: middle; font-size: 10.2px;" transform="translate(40.688690185546875,139.5)" y="0" x="0" id="text-entity-steptasks-1b58e334-b1db-5be4-8d8a-3602898074c8-attr-6-name" class="er entityLabel">status</text><rect height="21" width="39.643310546875" y="129" x="115.51431274414062" class="er attributeBoxEven"/><text style="dominant-baseline: middle; font-size: 10.2px;" transform="translate(120.51431274414062,139.5)" y="0" x="0" id="text-entity-steptasks-1b58e334-b1db-5be4-8d8a-3602898074c8-attr-6-key" class="er entityLabel"/><rect height="21" width="35.688690185546875" y="150" x="0" class="er attributeBoxOdd"/><text style="dominant-baseline: middle; font-size: 10.2px;" transform="translate(5,160.5)" y="0" x="0" id="text-entity-steptasks-1b58e334-b1db-5be4-8d8a-3602898074c8-attr-7-type" class="er entityLabel">int</text><rect height="21" width="79.82562255859375" y="150" x="35.688690185546875" class="er attributeBoxOdd"/><text style="dominant-baseline: middle; font-size: 10.2px;" transform="translate(40.688690185546875,160.5)" y="0" x="0" id="text-entity-steptasks-1b58e334-b1db-5be4-8d8a-3602898074c8-attr-7-name" class="er entityLabel">attempts_count</text><rect height="21" width="39.643310546875" y="150" x="115.51431274414062" class="er attributeBoxOdd"/><text style="dominant-baseline: middle; font-size: 10.2px;" transform="translate(120.51431274414062,160.5)" y="0" x="0" id="text-entity-steptasks-1b58e334-b1db-5be4-8d8a-3602898074c8-attr-7-key" class="er entityLabel"/><rect height="21" width="35.688690185546875" y="171" x="0" class="er attributeBoxEven"/><text style="dominant-baseline: middle; font-size: 10.2px;" transform="translate(5,181.5)" y="0" x="0" id="text-entity-steptasks-1b58e334-b1db-5be4-8d8a-3602898074c8-attr-8-type" class="er entityLabel">text</text><rect height="21" width="79.82562255859375" y="171" x="35.688690185546875" class="er attributeBoxEven"/><text style="dominant-baseline: middle; font-size: 10.2px;" transform="translate(40.688690185546875,181.5)" y="0" x="0" id="text-entity-steptasks-1b58e334-b1db-5be4-8d8a-3602898074c8-attr-8-name" class="er entityLabel">error_message</text><rect height="21" width="39.643310546875" y="171" x="115.51431274414062" class="er attributeBoxEven"/><text style="dominant-baseline: middle; font-size: 10.2px;" transform="translate(120.51431274414062,181.5)" y="0" x="0" id="text-entity-steptasks-1b58e334-b1db-5be4-8d8a-3602898074c8-attr-8-key" class="er entityLabel"/><rect height="21" width="35.688690185546875" y="192" x="0" class="er attributeBoxOdd"/><text style="dominant-baseline: middle; font-size: 10.2px;" transform="translate(5,202.5)" y="0" x="0" id="text-entity-steptasks-1b58e334-b1db-5be4-8d8a-3602898074c8-attr-9-type" class="er entityLabel">jsonb</text><rect height="21" width="79.82562255859375" y="192" x="35.688690185546875" class="er attributeBoxOdd"/><text style="dominant-baseline: middle; font-size: 10.2px;" transform="translate(40.688690185546875,202.5)" y="0" x="0" id="text-entity-steptasks-1b58e334-b1db-5be4-8d8a-3602898074c8-attr-9-name" class="er entityLabel">output</text><rect height="21" width="39.643310546875" y="192" x="115.51431274414062" class="er attributeBoxOdd"/><text style="dominant-baseline: middle; font-size: 10.2px;" transform="translate(120.51431274414062,202.5)" y="0" x="0" id="text-entity-steptasks-1b58e334-b1db-5be4-8d8a-3602898074c8-attr-9-key" class="er entityLabel"/></g><rect height="14" width="19.359375" y="162.96568298339844" x="106.04055786132812" class="er relationshipLabelBox"/><text style="text-anchor: middle; dominant-baseline: middle; font-size: 12px;" y="169.96568298339844" x="115.72024536132812" id="rel1" class="er relationshipLabel">has</text><rect height="14" width="80.734375" y="458.8131103515625" x="20.040935516357422" class="er relationshipLabelBox"/><text style="text-anchor: middle; dominant-baseline: middle; font-size: 12px;" y="465.8131103515625" x="60.40812301635742" id="rel2" class="er relationshipLabel">is_dependency</text><rect height="14" width="66.078125" y="460.0412902832031" x="126.8541259765625" class="er relationshipLabelBox"/><text style="text-anchor: middle; dominant-baseline: middle; font-size: 12px;" y="467.0412902832031" x="159.8931884765625" id="rel3" class="er relationshipLabel">depends_on</text><rect height="14" width="60.703125" y="167.44549560546875" x="308.50225830078125" class="er relationshipLabelBox"/><text style="text-anchor: middle; dominant-baseline: middle; font-size: 12px;" y="174.44549560546875" x="338.85382080078125" id="rel4" class="er relationshipLabel">instantiates</text><rect height="14" width="44.703125" y="436.75" x="329.8114318847656" class="er relationshipLabelBox"/><text style="text-anchor: middle; dominant-baseline: middle; font-size: 12px;" y="443.75" x="352.1629943847656" id="rel5" class="er relationshipLabel">contains</text><rect height="14" width="19.359375" y="692" x="342.4833068847656" class="er relationshipLabelBox"/><text style="text-anchor: middle; dominant-baseline: middle; font-size: 12px;" y="699" x="352.1629943847656" id="rel6" class="er relationshipLabel">has</text></svg>