<svg aria-roledescription="er" role="graphics-document document" viewBox="0 0 516.6764221191406 1024" style="max-width: 516.676px; background-color: white;" xmlns:xlink="http://www.w3.org/1999/xlink" xmlns="http://www.w3.org/2000/svg" width="100%" id="my-svg"><style>#my-svg{font-family:"trebuchet ms",verdana,arial,sans-serif;font-size:16px;fill:#333;}#my-svg .error-icon{fill:#552222;}#my-svg .error-text{fill:#552222;stroke:#552222;}#my-svg .edge-thickness-normal{stroke-width:1px;}#my-svg .edge-thickness-thick{stroke-width:3.5px;}#my-svg .edge-pattern-solid{stroke-dasharray:0;}#my-svg .edge-thickness-invisible{stroke-width:0;fill:none;}#my-svg .edge-pattern-dashed{stroke-dasharray:3;}#my-svg .edge-pattern-dotted{stroke-dasharray:2;}#my-svg .marker{fill:#333333;stroke:#333333;}#my-svg .marker.cross{stroke:#333333;}#my-svg svg{font-family:"trebuchet ms",verdana,arial,sans-serif;font-size:16px;}#my-svg p{margin:0;}#my-svg .entityBox{fill:#ECECFF;stroke:#9370DB;}#my-svg .attributeBoxOdd{fill:#ffffff;stroke:#9370DB;}#my-svg .attributeBoxEven{fill:#f2f2f2;stroke:#9370DB;}#my-svg .relationshipLabelBox{fill:hsl(80, 100%, 96.2745098039%);opacity:0.7;background-color:hsl(80, 100%, 96.2745098039%);}#my-svg .relationshipLabelBox rect{opacity:0.5;}#my-svg .relationshipLine{stroke:#333333;}#my-svg .entityTitleText{text-anchor:middle;font-size:18px;fill:#333;}#my-svg #MD_PARENT_START{fill:#f5f5f5!important;stroke:#333333!important;stroke-width:1;}#my-svg #MD_PARENT_END{fill:#f5f5f5!important;stroke:#333333!important;stroke-width:1;}#my-svg :root{--mermaid-font-family:"trebuchet ms",verdana,arial,sans-serif;}</style><g/><defs><marker orient="auto" markerHeight="240" markerWidth="190" refY="7" refX="0" id="MD_PARENT_START"><path d="M 18,7 L9,13 L1,7 L9,1 Z"/></marker></defs><defs><marker orient="auto" markerHeight="28" markerWidth="20" refY="7" refX="19" id="MD_PARENT_END"><path d="M 18,7 L9,13 L1,7 L9,1 Z"/></marker></defs><defs><marker orient="auto" markerHeight="18" markerWidth="18" refY="9" refX="0" id="ONLY_ONE_START"><path d="M9,0 L9,18 M15,0 L15,18" fill="none" stroke="gray"/></marker></defs><defs><marker orient="auto" markerHeight="18" markerWidth="18" refY="9" refX="18" id="ONLY_ONE_END"><path d="M3,0 L3,18 M9,0 L9,18" fill="none" stroke="gray"/></marker></defs><defs><marker orient="auto" markerHeight="18" markerWidth="30" refY="9" refX="0" id="ZERO_OR_ONE_START"><circle r="6" cy="9" cx="21" fill="white" stroke="gray"/><path d="M9,0 L9,18" fill="none" stroke="gray"/></marker></defs><defs><marker orient="auto" markerHeight="18" markerWidth="30" refY="9" refX="30" id="ZERO_OR_ONE_END"><circle r="6" cy="9" cx="9" fill="white" stroke="gray"/><path d="M21,0 L21,18" fill="none" stroke="gray"/></marker></defs><defs><marker orient="auto" markerHeight="36" markerWidth="45" refY="18" refX="18" id="ONE_OR_MORE_START"><path d="M0,18 Q 18,0 36,18 Q 18,36 0,18 M42,9 L42,27" fill="none" stroke="gray"/></marker></defs><defs><marker orient="auto" markerHeight="36" markerWidth="45" refY="18" refX="27" id="ONE_OR_MORE_END"><path d="M3,9 L3,27 M9,18 Q27,0 45,18 Q27,36 9,18" fill="none" stroke="gray"/></marker></defs><defs><marker orient="auto" markerHeight="36" markerWidth="57" refY="18" refX="18" id="ZERO_OR_MORE_START"><circle r="6" cy="18" cx="48" fill="white" stroke="gray"/><path d="M0,18 Q18,0 36,18 Q18,36 0,18" fill="none" stroke="gray"/></marker></defs><defs><marker orient="auto" markerHeight="36" markerWidth="57" refY="18" refX="39" id="ZERO_OR_MORE_END"><circle r="6" cy="18" cx="9" fill="white" stroke="gray"/><path d="M21,18 Q39,0 57,18 Q39,36 21,18" fill="none" stroke="gray"/></marker></defs><path style="stroke: gray; fill: none;" marker-start="url(#ONLY_ONE_START)" marker-end="url(#ZERO_OR_MORE_END)" d="M190.699,128L180.598,136.333C170.496,144.667,150.292,161.333,140.191,178C130.089,194.667,130.089,211.333,130.089,219.667L130.089,228" class="er relationshipLine"/><path style="stroke: gray; fill: none;" marker-start="url(#ONLY_ONE_START)" marker-end="url(#ZERO_OR_MORE_END)" d="M328.257,118.526L344.308,128.439C360.358,138.351,392.459,158.175,408.509,181.671C424.56,205.167,424.56,232.333,424.56,245.917L424.56,259.5" class="er relationshipLine"/><path style="stroke: gray; fill: none;" marker-start="url(#ONLY_ONE_START)" marker-end="url(#ZERO_OR_MORE_END)" d="M96.063,441L93.401,449.333C90.738,457.667,85.414,474.333,82.751,498C80.089,521.667,80.089,552.333,80.089,567.667L80.089,583" class="er relationshipLine"/><path style="stroke: gray; fill: none;" marker-start="url(#ONLY_ONE_START)" marker-end="url(#ZERO_OR_MORE_END)" d="M210.112,440.273L216.508,448.727C222.904,457.182,235.697,474.091,250.32,491.387C264.942,508.683,281.394,526.366,289.621,535.207L297.847,544.049" class="er relationshipLine"/><path style="stroke: gray; fill: none;" marker-start="url(#ONLY_ONE_START)" marker-end="url(#ZERO_OR_MORE_END)" d="M424.56,409.5L424.56,423.083C424.56,436.667,424.56,463.833,421.485,485.75C418.41,507.667,412.259,524.333,409.184,532.667L406.109,541" class="er relationshipLine"/><path style="stroke: gray; fill: none;" marker-start="url(#ONLY_ONE_START)" marker-end="url(#ZERO_OR_MORE_END)" d="M374.56,712L374.56,720.333C374.56,728.667,374.56,745.333,374.56,762C374.56,778.667,374.56,795.333,374.56,803.667L374.56,812" class="er relationshipLine"/><g transform="translate(184.06000518798828,20 )" id="entity-flows-f18f0530-88df-544b-a742-e42ede14479d"><rect height="108" width="144.19744873046875" y="0" x="0" class="er entityBox"/><text style="dominant-baseline: middle; text-anchor: middle; font-size: 12px;" transform="translate(72.09872436523438,12)" y="0" x="0" id="text-entity-flows-f18f0530-88df-544b-a742-e42ede14479d" class="er entityLabel">flows</text><rect height="21" width="26.5899658203125" y="24" x="0" class="er attributeBoxOdd"/><text style="dominant-baseline: middle; font-size: 10.2px;" transform="translate(5,34.5)" y="0" x="0" id="text-entity-flows-f18f0530-88df-544b-a742-e42ede14479d-attr-1-type" class="er entityLabel">text</text><rect height="21" width="93.8125" y="24" x="26.5899658203125" class="er attributeBoxOdd"/><text style="dominant-baseline: middle; font-size: 10.2px;" transform="translate(31.5899658203125,34.5)" y="0" x="0" id="text-entity-flows-f18f0530-88df-544b-a742-e42ede14479d-attr-1-name" class="er entityLabel">flow_slug</text><rect height="21" width="23.79498291015625" y="24" x="120.4024658203125" class="er attributeBoxOdd"/><text style="dominant-baseline: middle; font-size: 10.2px;" transform="translate(125.4024658203125,34.5)" y="0" x="0" id="text-entity-flows-f18f0530-88df-544b-a742-e42ede14479d-attr-1-key" class="er entityLabel">PK</text><rect height="21" width="26.5899658203125" y="45" x="0" class="er attributeBoxEven"/><text style="dominant-baseline: middle; font-size: 10.2px;" transform="translate(5,55.5)" y="0" x="0" id="text-entity-flows-f18f0530-88df-544b-a742-e42ede14479d-attr-2-type" class="er entityLabel">int</text><rect height="21" width="93.8125" y="45" x="26.5899658203125" class="er attributeBoxEven"/><text style="dominant-baseline: middle; font-size: 10.2px;" transform="translate(31.5899658203125,55.5)" y="0" x="0" id="text-entity-flows-f18f0530-88df-544b-a742-e42ede14479d-attr-2-name" class="er entityLabel">opt_max_attempts</text><rect height="21" width="23.79498291015625" y="45" x="120.4024658203125" class="er attributeBoxEven"/><text style="dominant-baseline: middle; font-size: 10.2px;" transform="translate(125.4024658203125,55.5)" y="0" x="0" id="text-entity-flows-f18f0530-88df-544b-a742-e42ede14479d-attr-2-key" class="er entityLabel"/><rect height="21" width="26.5899658203125" y="66" x="0" class="er attributeBoxOdd"/><text style="dominant-baseline: middle; font-size: 10.2px;" transform="translate(5,76.5)" y="0" x="0" id="text-entity-flows-f18f0530-88df-544b-a742-e42ede14479d-attr-3-type" class="er entityLabel">int</text><rect height="21" width="93.8125" y="66" x="26.5899658203125" class="er attributeBoxOdd"/><text style="dominant-baseline: middle; font-size: 10.2px;" transform="translate(31.5899658203125,76.5)" y="0" x="0" id="text-entity-flows-f18f0530-88df-544b-a742-e42ede14479d-attr-3-name" class="er entityLabel">opt_base_delay</text><rect height="21" width="23.79498291015625" y="66" x="120.4024658203125" class="er attributeBoxOdd"/><text style="dominant-baseline: middle; font-size: 10.2px;" transform="translate(125.4024658203125,76.5)" y="0" x="0" id="text-entity-flows-f18f0530-88df-544b-a742-e42ede14479d-attr-3-key" class="er entityLabel"/><rect height="21" width="26.5899658203125" y="87" x="0" class="er attributeBoxEven"/><text style="dominant-baseline: middle; font-size: 10.2px;" transform="translate(5,97.5)" y="0" x="0" id="text-entity-flows-f18f0530-88df-544b-a742-e42ede14479d-attr-4-type" class="er entityLabel">int</text><rect height="21" width="93.8125" y="87" x="26.5899658203125" class="er attributeBoxEven"/><text style="dominant-baseline: middle; font-size: 10.2px;" transform="translate(31.5899658203125,97.5)" y="0" x="0" id="text-entity-flows-f18f0530-88df-544b-a742-e42ede14479d-attr-4-name" class="er entityLabel">opt_timeout</text><rect height="21" width="23.79498291015625" y="87" x="120.4024658203125" class="er attributeBoxEven"/><text style="dominant-baseline: middle; font-size: 10.2px;" transform="translate(125.4024658203125,97.5)" y="0" x="0" id="text-entity-flows-f18f0530-88df-544b-a742-e42ede14479d-attr-4-key" class="er entityLabel"/></g><g transform="translate(50.06597900390625,228 )" id="entity-steps-9f52b7fe-5175-560c-8193-e79d92ebca66"><rect height="213" width="160.0457763671875" y="0" x="0" class="er entityBox"/><text style="dominant-baseline: middle; text-anchor: middle; font-size: 12px;" transform="translate(80.02288818359375,12)" y="0" x="0" id="text-entity-steps-9f52b7fe-5175-560c-8193-e79d92ebca66" class="er entityLabel">steps</text><rect height="21" width="26.5899658203125" y="24" x="0" class="er attributeBoxOdd"/><text style="dominant-baseline: middle; font-size: 10.2px;" transform="translate(5,34.5)" y="0" x="0" id="text-entity-steps-9f52b7fe-5175-560c-8193-e79d92ebca66-attr-1-type" class="er entityLabel">text</text><rect height="21" width="93.8125" y="24" x="26.5899658203125" class="er attributeBoxOdd"/><text style="dominant-baseline: middle; font-size: 10.2px;" transform="translate(31.5899658203125,34.5)" y="0" x="0" id="text-entity-steps-9f52b7fe-5175-560c-8193-e79d92ebca66-attr-1-name" class="er entityLabel">flow_slug</text><rect height="21" width="39.643310546875" y="24" x="120.4024658203125" class="er attributeBoxOdd"/><text style="dominant-baseline: middle; font-size: 10.2px;" transform="translate(125.4024658203125,34.5)" y="0" x="0" id="text-entity-steps-9f52b7fe-5175-560c-8193-e79d92ebca66-attr-1-key" class="er entityLabel">PK,FK</text><rect height="21" width="26.5899658203125" y="45" x="0" class="er attributeBoxEven"/><text style="dominant-baseline: middle; font-size: 10.2px;" transform="translate(5,55.5)" y="0" x="0" id="text-entity-steps-9f52b7fe-5175-560c-8193-e79d92ebca66-attr-2-type" class="er entityLabel">text</text><rect height="21" width="93.8125" y="45" x="26.5899658203125" class="er attributeBoxEven"/><text style="dominant-baseline: middle; font-size: 10.2px;" transform="translate(31.5899658203125,55.5)" y="0" x="0" id="text-entity-steps-9f52b7fe-5175-560c-8193-e79d92ebca66-attr-2-name" class="er entityLabel">step_slug</text><rect height="21" width="39.643310546875" y="45" x="120.4024658203125" class="er attributeBoxEven"/><text style="dominant-baseline: middle; font-size: 10.2px;" transform="translate(125.4024658203125,55.5)" y="0" x="0" id="text-entity-steps-9f52b7fe-5175-560c-8193-e79d92ebca66-attr-2-key" class="er entityLabel">PK</text><rect height="21" width="26.5899658203125" y="66" x="0" class="er attributeBoxOdd"/><text style="dominant-baseline: middle; font-size: 10.2px;" transform="translate(5,76.5)" y="0" x="0" id="text-entity-steps-9f52b7fe-5175-560c-8193-e79d92ebca66-attr-3-type" class="er entityLabel">text</text><rect height="21" width="93.8125" y="66" x="26.5899658203125" class="er attributeBoxOdd"/><text style="dominant-baseline: middle; font-size: 10.2px;" transform="translate(31.5899658203125,76.5)" y="0" x="0" id="text-entity-steps-9f52b7fe-5175-560c-8193-e79d92ebca66-attr-3-name" class="er entityLabel">step_type</text><rect height="21" width="39.643310546875" y="66" x="120.4024658203125" class="er attributeBoxOdd"/><text style="dominant-baseline: middle; font-size: 10.2px;" transform="translate(125.4024658203125,76.5)" y="0" x="0" id="text-entity-steps-9f52b7fe-5175-560c-8193-e79d92ebca66-attr-3-key" class="er entityLabel"/><rect height="21" width="26.5899658203125" y="87" x="0" class="er attributeBoxEven"/><text style="dominant-baseline: middle; font-size: 10.2px;" transform="translate(5,97.5)" y="0" x="0" id="text-entity-steps-9f52b7fe-5175-560c-8193-e79d92ebca66-attr-4-type" class="er entityLabel">int</text><rect height="21" width="93.8125" y="87" x="26.5899658203125" class="er attributeBoxEven"/><text style="dominant-baseline: middle; font-size: 10.2px;" transform="translate(31.5899658203125,97.5)" y="0" x="0" id="text-entity-steps-9f52b7fe-5175-560c-8193-e79d92ebca66-attr-4-name" class="er entityLabel">step_index</text><rect height="21" width="39.643310546875" y="87" x="120.4024658203125" class="er attributeBoxEven"/><text style="dominant-baseline: middle; font-size: 10.2px;" transform="translate(125.4024658203125,97.5)" y="0" x="0" id="text-entity-steps-9f52b7fe-5175-560c-8193-e79d92ebca66-attr-4-key" class="er entityLabel"/><rect height="21" width="26.5899658203125" y="108" x="0" class="er attributeBoxOdd"/><text style="dominant-baseline: middle; font-size: 10.2px;" transform="translate(5,118.5)" y="0" x="0" id="text-entity-steps-9f52b7fe-5175-560c-8193-e79d92ebca66-attr-5-type" class="er entityLabel">int</text><rect height="21" width="93.8125" y="108" x="26.5899658203125" class="er attributeBoxOdd"/><text style="dominant-baseline: middle; font-size: 10.2px;" transform="translate(31.5899658203125,118.5)" y="0" x="0" id="text-entity-steps-9f52b7fe-5175-560c-8193-e79d92ebca66-attr-5-name" class="er entityLabel">deps_count</text><rect height="21" width="39.643310546875" y="108" x="120.4024658203125" class="er attributeBoxOdd"/><text style="dominant-baseline: middle; font-size: 10.2px;" transform="translate(125.4024658203125,118.5)" y="0" x="0" id="text-entity-steps-9f52b7fe-5175-560c-8193-e79d92ebca66-attr-5-key" class="er entityLabel"/><rect height="21" width="26.5899658203125" y="129" x="0" class="er attributeBoxEven"/><text style="dominant-baseline: middle; font-size: 10.2px;" transform="translate(5,139.5)" y="0" x="0" id="text-entity-steps-9f52b7fe-5175-560c-8193-e79d92ebca66-attr-6-type" class="er entityLabel">int</text><rect height="21" width="93.8125" y="129" x="26.5899658203125" class="er attributeBoxEven"/><text style="dominant-baseline: middle; font-size: 10.2px;" transform="translate(31.5899658203125,139.5)" y="0" x="0" id="text-entity-steps-9f52b7fe-5175-560c-8193-e79d92ebca66-attr-6-name" class="er entityLabel">opt_max_attempts</text><rect height="21" width="39.643310546875" y="129" x="120.4024658203125" class="er attributeBoxEven"/><text style="dominant-baseline: middle; font-size: 10.2px;" transform="translate(125.4024658203125,139.5)" y="0" x="0" id="text-entity-steps-9f52b7fe-5175-560c-8193-e79d92ebca66-attr-6-key" class="er entityLabel"/><rect height="21" width="26.5899658203125" y="150" x="0" class="er attributeBoxOdd"/><text style="dominant-baseline: middle; font-size: 10.2px;" transform="translate(5,160.5)" y="0" x="0" id="text-entity-steps-9f52b7fe-5175-560c-8193-e79d92ebca66-attr-7-type" class="er entityLabel">int</text><rect height="21" width="93.8125" y="150" x="26.5899658203125" class="er attributeBoxOdd"/><text style="dominant-baseline: middle; font-size: 10.2px;" transform="translate(31.5899658203125,160.5)" y="0" x="0" id="text-entity-steps-9f52b7fe-5175-560c-8193-e79d92ebca66-attr-7-name" class="er entityLabel">opt_base_delay</text><rect height="21" width="39.643310546875" y="150" x="120.4024658203125" class="er attributeBoxOdd"/><text style="dominant-baseline: middle; font-size: 10.2px;" transform="translate(125.4024658203125,160.5)" y="0" x="0" id="text-entity-steps-9f52b7fe-5175-560c-8193-e79d92ebca66-attr-7-key" class="er entityLabel"/><rect height="21" width="26.5899658203125" y="171" x="0" class="er attributeBoxEven"/><text style="dominant-baseline: middle; font-size: 10.2px;" transform="translate(5,181.5)" y="0" x="0" id="text-entity-steps-9f52b7fe-5175-560c-8193-e79d92ebca66-attr-8-type" class="er entityLabel">int</text><rect height="21" width="93.8125" y="171" x="26.5899658203125" class="er attributeBoxEven"/><text style="dominant-baseline: middle; font-size: 10.2px;" transform="translate(31.5899658203125,181.5)" y="0" x="0" id="text-entity-steps-9f52b7fe-5175-560c-8193-e79d92ebca66-attr-8-name" class="er entityLabel">opt_timeout</text><rect height="21" width="39.643310546875" y="171" x="120.4024658203125" class="er attributeBoxEven"/><text style="dominant-baseline: middle; font-size: 10.2px;" transform="translate(125.4024658203125,181.5)" y="0" x="0" id="text-entity-steps-9f52b7fe-5175-560c-8193-e79d92ebca66-attr-8-key" class="er entityLabel"/><rect height="21" width="26.5899658203125" y="192" x="0" class="er attributeBoxOdd"/><text style="dominant-baseline: middle; font-size: 10.2px;" transform="translate(5,202.5)" y="0" x="0" id="text-entity-steps-9f52b7fe-5175-560c-8193-e79d92ebca66-attr-9-type" class="er entityLabel">int</text><rect height="21" width="93.8125" y="192" x="26.5899658203125" class="er attributeBoxOdd"/><text style="dominant-baseline: middle; font-size: 10.2px;" transform="translate(31.5899658203125,202.5)" y="0" x="0" id="text-entity-steps-9f52b7fe-5175-560c-8193-e79d92ebca66-attr-9-name" class="er entityLabel">opt_start_delay</text><rect height="21" width="39.643310546875" y="192" x="120.4024658203125" class="er attributeBoxOdd"/><text style="dominant-baseline: middle; font-size: 10.2px;" transform="translate(125.4024658203125,202.5)" y="0" x="0" id="text-entity-steps-9f52b7fe-5175-560c-8193-e79d92ebca66-attr-9-key" class="er entityLabel"/></g><g transform="translate(352.44276428222656,259.5 )" id="entity-runs-75ffb4dd-6be8-5a8d-bc72-ade53caeacdf"><rect height="150" width="144.23367309570312" y="0" x="0" class="er entityBox"/><text style="dominant-baseline: middle; text-anchor: middle; font-size: 12px;" transform="translate(72.11683654785156,12)" y="0" x="0" id="text-entity-runs-75ffb4dd-6be8-5a8d-bc72-ade53caeacdf" class="er entityLabel">runs</text><rect height="21" width="35.688690185546875" y="24" x="0" class="er attributeBoxOdd"/><text style="dominant-baseline: middle; font-size: 10.2px;" transform="translate(5,34.5)" y="0" x="0" id="text-entity-runs-75ffb4dd-6be8-5a8d-bc72-ade53caeacdf-attr-1-type" class="er entityLabel">uuid</text><rect height="21" width="84.75" y="24" x="35.688690185546875" class="er attributeBoxOdd"/><text style="dominant-baseline: middle; font-size: 10.2px;" transform="translate(40.688690185546875,34.5)" y="0" x="0" id="text-entity-runs-75ffb4dd-6be8-5a8d-bc72-ade53caeacdf-attr-1-name" class="er entityLabel">run_id</text><rect height="21" width="23.79498291015625" y="24" x="120.43869018554688" class="er attributeBoxOdd"/><text style="dominant-baseline: middle; font-size: 10.2px;" transform="translate(125.43869018554688,34.5)" y="0" x="0" id="text-entity-runs-75ffb4dd-6be8-5a8d-bc72-ade53caeacdf-attr-1-key" class="er entityLabel">PK</text><rect height="21" width="35.688690185546875" y="45" x="0" class="er attributeBoxEven"/><text style="dominant-baseline: middle; font-size: 10.2px;" transform="translate(5,55.5)" y="0" x="0" id="text-entity-runs-75ffb4dd-6be8-5a8d-bc72-ade53caeacdf-attr-2-type" class="er entityLabel">text</text><rect height="21" width="84.75" y="45" x="35.688690185546875" class="er attributeBoxEven"/><text style="dominant-baseline: middle; font-size: 10.2px;" transform="translate(40.688690185546875,55.5)" y="0" x="0" id="text-entity-runs-75ffb4dd-6be8-5a8d-bc72-ade53caeacdf-attr-2-name" class="er entityLabel">flow_slug</text><rect height="21" width="23.79498291015625" y="45" x="120.43869018554688" class="er attributeBoxEven"/><text style="dominant-baseline: middle; font-size: 10.2px;" transform="translate(125.43869018554688,55.5)" y="0" x="0" id="text-entity-runs-75ffb4dd-6be8-5a8d-bc72-ade53caeacdf-attr-2-key" class="er entityLabel">FK</text><rect height="21" width="35.688690185546875" y="66" x="0" class="er attributeBoxOdd"/><text style="dominant-baseline: middle; font-size: 10.2px;" transform="translate(5,76.5)" y="0" x="0" id="text-entity-runs-75ffb4dd-6be8-5a8d-bc72-ade53caeacdf-attr-3-type" class="er entityLabel">text</text><rect height="21" width="84.75" y="66" x="35.688690185546875" class="er attributeBoxOdd"/><text style="dominant-baseline: middle; font-size: 10.2px;" transform="translate(40.688690185546875,76.5)" y="0" x="0" id="text-entity-runs-75ffb4dd-6be8-5a8d-bc72-ade53caeacdf-attr-3-name" class="er entityLabel">status</text><rect height="21" width="23.79498291015625" y="66" x="120.43869018554688" class="er attributeBoxOdd"/><text style="dominant-baseline: middle; font-size: 10.2px;" transform="translate(125.43869018554688,76.5)" y="0" x="0" id="text-entity-runs-75ffb4dd-6be8-5a8d-bc72-ade53caeacdf-attr-3-key" class="er entityLabel"/><rect height="21" width="35.688690185546875" y="87" x="0" class="er attributeBoxEven"/><text style="dominant-baseline: middle; font-size: 10.2px;" transform="translate(5,97.5)" y="0" x="0" id="text-entity-runs-75ffb4dd-6be8-5a8d-bc72-ade53caeacdf-attr-4-type" class="er entityLabel">jsonb</text><rect height="21" width="84.75" y="87" x="35.688690185546875" class="er attributeBoxEven"/><text style="dominant-baseline: middle; font-size: 10.2px;" transform="translate(40.688690185546875,97.5)" y="0" x="0" id="text-entity-runs-75ffb4dd-6be8-5a8d-bc72-ade53caeacdf-attr-4-name" class="er entityLabel">input</text><rect height="21" width="23.79498291015625" y="87" x="120.43869018554688" class="er attributeBoxEven"/><text style="dominant-baseline: middle; font-size: 10.2px;" transform="translate(125.43869018554688,97.5)" y="0" x="0" id="text-entity-runs-75ffb4dd-6be8-5a8d-bc72-ade53caeacdf-attr-4-key" class="er entityLabel"/><rect height="21" width="35.688690185546875" y="108" x="0" class="er attributeBoxOdd"/><text style="dominant-baseline: middle; font-size: 10.2px;" transform="translate(5,118.5)" y="0" x="0" id="text-entity-runs-75ffb4dd-6be8-5a8d-bc72-ade53caeacdf-attr-5-type" class="er entityLabel">jsonb</text><rect height="21" width="84.75" y="108" x="35.688690185546875" class="er attributeBoxOdd"/><text style="dominant-baseline: middle; font-size: 10.2px;" transform="translate(40.688690185546875,118.5)" y="0" x="0" id="text-entity-runs-75ffb4dd-6be8-5a8d-bc72-ade53caeacdf-attr-5-name" class="er entityLabel">output</text><rect height="21" width="23.79498291015625" y="108" x="120.43869018554688" class="er attributeBoxOdd"/><text style="dominant-baseline: middle; font-size: 10.2px;" transform="translate(125.43869018554688,118.5)" y="0" x="0" id="text-entity-runs-75ffb4dd-6be8-5a8d-bc72-ade53caeacdf-attr-5-key" class="er entityLabel"/><rect height="21" width="35.688690185546875" y="129" x="0" class="er attributeBoxEven"/><text style="dominant-baseline: middle; font-size: 10.2px;" transform="translate(5,139.5)" y="0" x="0" id="text-entity-runs-75ffb4dd-6be8-5a8d-bc72-ade53caeacdf-attr-6-type" class="er entityLabel">int</text><rect height="21" width="84.75" y="129" x="35.688690185546875" class="er attributeBoxEven"/><text style="dominant-baseline: middle; font-size: 10.2px;" transform="translate(40.688690185546875,139.5)" y="0" x="0" id="text-entity-runs-75ffb4dd-6be8-5a8d-bc72-ade53caeacdf-attr-6-name" class="er entityLabel">remaining_steps</text><rect height="21" width="23.79498291015625" y="129" x="120.43869018554688" class="er attributeBoxEven"/><text style="dominant-baseline: middle; font-size: 10.2px;" transform="translate(125.43869018554688,139.5)" y="0" x="0" id="text-entity-runs-75ffb4dd-6be8-5a8d-bc72-ade53caeacdf-attr-6-key" class="er entityLabel"/></g><g transform="translate(20,583 )" id="entity-deps-e5301c36-0cf6-5c3a-a840-98a74414ff8e"><rect height="87" width="120.177734375" y="0" x="0" class="er entityBox"/><text style="dominant-baseline: middle; text-anchor: middle; font-size: 12px;" transform="translate(60.0888671875,12)" y="0" x="0" id="text-entity-deps-e5301c36-0cf6-5c3a-a840-98a74414ff8e" class="er entityLabel">deps</text><rect height="21" width="26.5899658203125" y="24" x="0" class="er attributeBoxOdd"/><text style="dominant-baseline: middle; font-size: 10.2px;" transform="translate(5,34.5)" y="0" x="0" id="text-entity-deps-e5301c36-0cf6-5c3a-a840-98a74414ff8e-attr-1-type" class="er entityLabel">text</text><rect height="21" width="53.9444580078125" y="24" x="26.5899658203125" class="er attributeBoxOdd"/><text style="dominant-baseline: middle; font-size: 10.2px;" transform="translate(31.5899658203125,34.5)" y="0" x="0" id="text-entity-deps-e5301c36-0cf6-5c3a-a840-98a74414ff8e-attr-1-name" class="er entityLabel">flow_slug</text><rect height="21" width="39.643310546875" y="24" x="80.534423828125" class="er attributeBoxOdd"/><text style="dominant-baseline: middle; font-size: 10.2px;" transform="translate(85.534423828125,34.5)" y="0" x="0" id="text-entity-deps-e5301c36-0cf6-5c3a-a840-98a74414ff8e-attr-1-key" class="er entityLabel">PK,FK</text><rect height="21" width="26.5899658203125" y="45" x="0" class="er attributeBoxEven"/><text style="dominant-baseline: middle; font-size: 10.2px;" transform="translate(5,55.5)" y="0" x="0" id="text-entity-deps-e5301c36-0cf6-5c3a-a840-98a74414ff8e-attr-2-type" class="er entityLabel">text</text><rect height="21" width="53.9444580078125" y="45" x="26.5899658203125" class="er attributeBoxEven"/><text style="dominant-baseline: middle; font-size: 10.2px;" transform="translate(31.5899658203125,55.5)" y="0" x="0" id="text-entity-deps-e5301c36-0cf6-5c3a-a840-98a74414ff8e-attr-2-name" class="er entityLabel">dep_slug</text><rect height="21" width="39.643310546875" y="45" x="80.534423828125" class="er attributeBoxEven"/><text style="dominant-baseline: middle; font-size: 10.2px;" transform="translate(85.534423828125,55.5)" y="0" x="0" id="text-entity-deps-e5301c36-0cf6-5c3a-a840-98a74414ff8e-attr-2-key" class="er entityLabel">PK,FK</text><rect height="21" width="26.5899658203125" y="66" x="0" class="er attributeBoxOdd"/><text style="dominant-baseline: middle; font-size: 10.2px;" transform="translate(5,76.5)" y="0" x="0" id="text-entity-deps-e5301c36-0cf6-5c3a-a840-98a74414ff8e-attr-3-type" class="er entityLabel">text</text><rect height="21" width="53.9444580078125" y="66" x="26.5899658203125" class="er attributeBoxOdd"/><text style="dominant-baseline: middle; font-size: 10.2px;" transform="translate(31.5899658203125,76.5)" y="0" x="0" id="text-entity-deps-e5301c36-0cf6-5c3a-a840-98a74414ff8e-attr-3-name" class="er entityLabel">step_slug</text><rect height="21" width="39.643310546875" y="66" x="80.534423828125" class="er attributeBoxOdd"/><text style="dominant-baseline: middle; font-size: 10.2px;" transform="translate(85.534423828125,76.5)" y="0" x="0" id="text-entity-deps-e5301c36-0cf6-5c3a-a840-98a74414ff8e-attr-3-key" class="er entityLabel">PK,FK</text></g><g transform="translate(297.8467254638672,541 )" id="entity-stepstates-d5fb431d-8c65-5bd1-8e0a-6a399ad2c7c4"><rect height="171" width="153.42575073242188" y="0" x="0" class="er entityBox"/><text style="dominant-baseline: middle; text-anchor: middle; font-size: 12px;" transform="translate(76.71287536621094,12)" y="0" x="0" id="text-entity-stepstates-d5fb431d-8c65-5bd1-8e0a-6a399ad2c7c4" class="er entityLabel">step_states</text><rect height="21" width="29.594940185546875" y="24" x="0" class="er attributeBoxOdd"/><text style="dominant-baseline: middle; font-size: 10.2px;" transform="translate(5,34.5)" y="0" x="0" id="text-entity-stepstates-d5fb431d-8c65-5bd1-8e0a-6a399ad2c7c4-attr-1-type" class="er entityLabel">text</text><rect height="21" width="84.1875" y="24" x="29.594940185546875" class="er attributeBoxOdd"/><text style="dominant-baseline: middle; font-size: 10.2px;" transform="translate(34.594940185546875,34.5)" y="0" x="0" id="text-entity-stepstates-d5fb431d-8c65-5bd1-8e0a-6a399ad2c7c4-attr-1-name" class="er entityLabel">flow_slug</text><rect height="21" width="39.643310546875" y="24" x="113.78244018554688" class="er attributeBoxOdd"/><text style="dominant-baseline: middle; font-size: 10.2px;" transform="translate(118.78244018554688,34.5)" y="0" x="0" id="text-entity-stepstates-d5fb431d-8c65-5bd1-8e0a-6a399ad2c7c4-attr-1-key" class="er entityLabel">FK</text><rect height="21" width="29.594940185546875" y="45" x="0" class="er attributeBoxEven"/><text style="dominant-baseline: middle; font-size: 10.2px;" transform="translate(5,55.5)" y="0" x="0" id="text-entity-stepstates-d5fb431d-8c65-5bd1-8e0a-6a399ad2c7c4-attr-2-type" class="er entityLabel">uuid</text><rect height="21" width="84.1875" y="45" x="29.594940185546875" class="er attributeBoxEven"/><text style="dominant-baseline: middle; font-size: 10.2px;" transform="translate(34.594940185546875,55.5)" y="0" x="0" id="text-entity-stepstates-d5fb431d-8c65-5bd1-8e0a-6a399ad2c7c4-attr-2-name" class="er entityLabel">run_id</text><rect height="21" width="39.643310546875" y="45" x="113.78244018554688" class="er attributeBoxEven"/><text style="dominant-baseline: middle; font-size: 10.2px;" transform="translate(118.78244018554688,55.5)" y="0" x="0" id="text-entity-stepstates-d5fb431d-8c65-5bd1-8e0a-6a399ad2c7c4-attr-2-key" class="er entityLabel">PK,FK</text><rect height="21" width="29.594940185546875" y="66" x="0" class="er attributeBoxOdd"/><text style="dominant-baseline: middle; font-size: 10.2px;" transform="translate(5,76.5)" y="0" x="0" id="text-entity-stepstates-d5fb431d-8c65-5bd1-8e0a-6a399ad2c7c4-attr-3-type" class="er entityLabel">text</text><rect height="21" width="84.1875" y="66" x="29.594940185546875" class="er attributeBoxOdd"/><text style="dominant-baseline: middle; font-size: 10.2px;" transform="translate(34.594940185546875,76.5)" y="0" x="0" id="text-entity-stepstates-d5fb431d-8c65-5bd1-8e0a-6a399ad2c7c4-attr-3-name" class="er entityLabel">step_slug</text><rect height="21" width="39.643310546875" y="66" x="113.78244018554688" class="er attributeBoxOdd"/><text style="dominant-baseline: middle; font-size: 10.2px;" transform="translate(118.78244018554688,76.5)" y="0" x="0" id="text-entity-stepstates-d5fb431d-8c65-5bd1-8e0a-6a399ad2c7c4-attr-3-key" class="er entityLabel">PK,FK</text><rect height="21" width="29.594940185546875" y="87" x="0" class="er attributeBoxEven"/><text style="dominant-baseline: middle; font-size: 10.2px;" transform="translate(5,97.5)" y="0" x="0" id="text-entity-stepstates-d5fb431d-8c65-5bd1-8e0a-6a399ad2c7c4-attr-4-type" class="er entityLabel">text</text><rect height="21" width="84.1875" y="87" x="29.594940185546875" class="er attributeBoxEven"/><text style="dominant-baseline: middle; font-size: 10.2px;" transform="translate(34.594940185546875,97.5)" y="0" x="0" id="text-entity-stepstates-d5fb431d-8c65-5bd1-8e0a-6a399ad2c7c4-attr-4-name" class="er entityLabel">status</text><rect height="21" width="39.643310546875" y="87" x="113.78244018554688" class="er attributeBoxEven"/><text style="dominant-baseline: middle; font-size: 10.2px;" transform="translate(118.78244018554688,97.5)" y="0" x="0" id="text-entity-stepstates-d5fb431d-8c65-5bd1-8e0a-6a399ad2c7c4-attr-4-key" class="er entityLabel"/><rect height="21" width="29.594940185546875" y="108" x="0" class="er attributeBoxOdd"/><text style="dominant-baseline: middle; font-size: 10.2px;" transform="translate(5,118.5)" y="0" x="0" id="text-entity-stepstates-d5fb431d-8c65-5bd1-8e0a-6a399ad2c7c4-attr-5-type" class="er entityLabel">int</text><rect height="21" width="84.1875" y="108" x="29.594940185546875" class="er attributeBoxOdd"/><text style="dominant-baseline: middle; font-size: 10.2px;" transform="translate(34.594940185546875,118.5)" y="0" x="0" id="text-entity-stepstates-d5fb431d-8c65-5bd1-8e0a-6a399ad2c7c4-attr-5-name" class="er entityLabel">remaining_tasks</text><rect height="21" width="39.643310546875" y="108" x="113.78244018554688" class="er attributeBoxOdd"/><text style="dominant-baseline: middle; font-size: 10.2px;" transform="translate(118.78244018554688,118.5)" y="0" x="0" id="text-entity-stepstates-d5fb431d-8c65-5bd1-8e0a-6a399ad2c7c4-attr-5-key" class="er entityLabel"/><rect height="21" width="29.594940185546875" y="129" x="0" class="er attributeBoxEven"/><text style="dominant-baseline: middle; font-size: 10.2px;" transform="translate(5,139.5)" y="0" x="0" id="text-entity-stepstates-d5fb431d-8c65-5bd1-8e0a-6a399ad2c7c4-attr-6-type" class="er entityLabel">int</text><rect height="21" width="84.1875" y="129" x="29.594940185546875" class="er attributeBoxEven"/><text style="dominant-baseline: middle; font-size: 10.2px;" transform="translate(34.594940185546875,139.5)" y="0" x="0" id="text-entity-stepstates-d5fb431d-8c65-5bd1-8e0a-6a399ad2c7c4-attr-6-name" class="er entityLabel">initial_tasks</text><rect height="21" width="39.643310546875" y="129" x="113.78244018554688" class="er attributeBoxEven"/><text style="dominant-baseline: middle; font-size: 10.2px;" transform="translate(118.78244018554688,139.5)" y="0" x="0" id="text-entity-stepstates-d5fb431d-8c65-5bd1-8e0a-6a399ad2c7c4-attr-6-key" class="er entityLabel"/><rect height="21" width="29.594940185546875" y="150" x="0" class="er attributeBoxOdd"/><text style="dominant-baseline: middle; font-size: 10.2px;" transform="translate(5,160.5)" y="0" x="0" id="text-entity-stepstates-d5fb431d-8c65-5bd1-8e0a-6a399ad2c7c4-attr-7-type" class="er entityLabel">int</text><rect height="21" width="84.1875" y="150" x="29.594940185546875" class="er attributeBoxOdd"/><text style="dominant-baseline: middle; font-size: 10.2px;" transform="translate(34.594940185546875,160.5)" y="0" x="0" id="text-entity-stepstates-d5fb431d-8c65-5bd1-8e0a-6a399ad2c7c4-attr-7-name" class="er entityLabel">remaining_deps</text><rect height="21" width="39.643310546875" y="150" x="113.78244018554688" class="er attributeBoxOdd"/><text style="dominant-baseline: middle; font-size: 10.2px;" transform="translate(118.78244018554688,160.5)" y="0" x="0" id="text-entity-stepstates-d5fb431d-8c65-5bd1-8e0a-6a399ad2c7c4-attr-7-key" class="er entityLabel"/></g><g transform="translate(296.9807891845703,812 )" id="entity-steptasks-1b58e334-b1db-5be4-8d8a-3602898074c8"><rect height="192" width="155.15762329101562" y="0" x="0" class="er entityBox"/><text style="dominant-baseline: middle; text-anchor: middle; font-size: 12px;" transform="translate(77.57881164550781,12)" y="0" x="0" id="text-entity-steptasks-1b58e334-b1db-5be4-8d8a-3602898074c8" class="er entityLabel">step_tasks</text><rect height="21" width="35.688690185546875" y="24" x="0" class="er attributeBoxOdd"/><text style="dominant-baseline: middle; font-size: 10.2px;" transform="translate(5,34.5)" y="0" x="0" id="text-entity-steptasks-1b58e334-b1db-5be4-8d8a-3602898074c8-attr-1-type" class="er entityLabel">text</text><rect height="21" width="79.82562255859375" y="24" x="35.688690185546875" class="er attributeBoxOdd"/><text style="dominant-baseline: middle; font-size: 10.2px;" transform="translate(40.688690185546875,34.5)" y="0" x="0" id="text-entity-steptasks-1b58e334-b1db-5be4-8d8a-3602898074c8-attr-1-name" class="er entityLabel">flow_slug</text><rect height="21" width="39.643310546875" y="24" x="115.51431274414062" class="er attributeBoxOdd"/><text style="dominant-baseline: middle; font-size: 10.2px;" transform="translate(120.51431274414062,34.5)" y="0" x="0" id="text-entity-steptasks-1b58e334-b1db-5be4-8d8a-3602898074c8-attr-1-key" class="er entityLabel">FK</text><rect height="21" width="35.688690185546875" y="45" x="0" class="er attributeBoxEven"/><text style="dominant-baseline: middle; font-size: 10.2px;" transform="translate(5,55.5)" y="0" x="0" id="text-entity-steptasks-1b58e334-b1db-5be4-8d8a-3602898074c8-attr-2-type" class="er entityLabel">uuid</text><rect height="21" width="79.82562255859375" y="45" x="35.688690185546875" class="er attributeBoxEven"/><text style="dominant-baseline: middle; font-size: 10.2px;" transform="translate(40.688690185546875,55.5)" y="0" x="0" id="text-entity-steptasks-1b58e334-b1db-5be4-8d8a-3602898074c8-attr-2-name" class="er entityLabel">run_id</text><rect height="21" width="39.643310546875" y="45" x="115.51431274414062" class="er attributeBoxEven"/><text style="dominant-baseline: middle; font-size: 10.2px;" transform="translate(120.51431274414062,55.5)" y="0" x="0" id="text-entity-steptasks-1b58e334-b1db-5be4-8d8a-3602898074c8-attr-2-key" class="er entityLabel">PK,FK</text><rect height="21" width="35.688690185546875" y="66" x="0" class="er attributeBoxOdd"/><text style="dominant-baseline: middle; font-size: 10.2px;" transform="translate(5,76.5)" y="0" x="0" id="text-entity-steptasks-1b58e334-b1db-5be4-8d8a-3602898074c8-attr-3-type" class="er entityLabel">text</text><rect height="21" width="79.82562255859375" y="66" x="35.688690185546875" class="er attributeBoxOdd"/><text style="dominant-baseline: middle; font-size: 10.2px;" transform="translate(40.688690185546875,76.5)" y="0" x="0" id="text-entity-steptasks-1b58e334-b1db-5be4-8d8a-3602898074c8-attr-3-name" class="er entityLabel">step_slug</text><rect height="21" width="39.643310546875" y="66" x="115.51431274414062" class="er attributeBoxOdd"/><text style="dominant-baseline: middle; font-size: 10.2px;" transform="translate(120.51431274414062,76.5)" y="0" x="0" id="text-entity-steptasks-1b58e334-b1db-5be4-8d8a-3602898074c8-attr-3-key" class="er entityLabel">PK,FK</text><rect height="21" width="35.688690185546875" y="87" x="0" class="er attributeBoxEven"/><text style="dominant-baseline: middle; font-size: 10.2px;" transform="translate(5,97.5)" y="0" x="0" id="text-entity-steptasks-1b58e334-b1db-5be4-8d8a-3602898074c8-attr-4-type" class="er entityLabel">int</text><rect height="21" width="79.82562255859375" y="87" x="35.688690185546875" class="er attributeBoxEven"/><text style="dominant-baseline: middle; font-size: 10.2px;" transform="translate(40.688690185546875,97.5)" y="0" x="0" id="text-entity-steptasks-1b58e334-b1db-5be4-8d8a-3602898074c8-attr-4-name" class="er entityLabel">task_index</text><rect height="21" width="39.643310546875" y="87" x="115.51431274414062" class="er attributeBoxEven"/><text style="dominant-baseline: middle; font-size: 10.2px;" transform="translate(120.51431274414062,97.5)" y="0" x="0" id="text-entity-steptasks-1b58e334-b1db-5be4-8d8a-3602898074c8-attr-4-key" class="er entityLabel">PK</text><rect height="21" width="35.688690185546875" y="108" x="0" class="er attributeBoxOdd"/><text style="dominant-baseline: middle; font-size: 10.2px;" transform="translate(5,118.5)" y="0" x="0" id="text-entity-steptasks-1b58e334-b1db-5be4-8d8a-3602898074c8-attr-5-type" class="er entityLabel">bigint</text><rect height="21" width="79.82562255859375" y="108" x="35.688690185546875" class="er attributeBoxOdd"/><text style="dominant-baseline: middle; font-size: 10.2px;" transform="translate(40.688690185546875,118.5)" y="0" x="0" id="text-entity-steptasks-1b58e334-b1db-5be4-8d8a-3602898074c8-attr-5-name" class="er entityLabel">message_id</text><rect height="21" width="39.643310546875" y="108" x="115.51431274414062" class="er attributeBoxOdd"/><text style="dominant-baseline: middle; font-size: 10.2px;" transform="translate(120.51431274414062,118.5)" y="0" x="0" id="text-entity-steptasks-1b58e334-b1db-5be4-8d8a-3602898074c8-attr-5-key" class="er entityLabel"/><rect height="21" width="35.688690185546875" y="129" x="0" class="er attributeBoxEven"/><text style="dominant-baseline: middle; font-size: 10.2px;" transform="translate(5,139.5)" y="0" x="0" id="text-entity-steptasks-1b58e334-b1db-5be4-8d8a-3602898074c8-attr-6-type" class="er entityLabel">text</text><rect height="21" width="79.82562255859375" y="129" x="35.688690185546875" class="er attributeBoxEven"/><text style="dominant-baseline: middle; font-size: 10.2px;" transform="translate(40.688690185546875,139.5)" y="0" x="0" id="text-entity-steptasks-1b58e334-b1db-5be4-8d8a-3602898074c8-attr-6-name" class="er entityLabel">status</text><rect height="21" width="39.643310546875" y="129" x="115.51431274414062" class="er attributeBoxEven"/><text style="dominant-baseline: middle; font-size: 10.2px;" transform="translate(120.51431274414062,139.5)" y="0" x="0" id="text-entity-steptasks-1b58e334-b1db-5be4-8d8a-3602898074c8-attr-6-key" class="er entityLabel"/><rect height="21" width="35.688690185546875" y="150" x="0" class="er attributeBoxOdd"/><text style="dominant-baseline: middle; font-size: 10.2px;" transform="translate(5,160.5)" y="0" x="0" id="text-entity-steptasks-1b58e334-b1db-5be4-8d8a-3602898074c8-attr-7-type" class="er entityLabel">int</text><rect height="21" width="79.82562255859375" y="150" x="35.688690185546875" class="er attributeBoxOdd"/><text style="dominant-baseline: middle; font-size: 10.2px;" transform="translate(40.688690185546875,160.5)" y="0" x="0" id="text-entity-steptasks-1b58e334-b1db-5be4-8d8a-3602898074c8-attr-7-name" class="er entityLabel">attempts_count</text><rect height="21" width="39.643310546875" y="150" x="115.51431274414062" class="er attributeBoxOdd"/><text style="dominant-baseline: middle; font-size: 10.2px;" transform="translate(120.51431274414062,160.5)" y="0" x="0" id="text-entity-steptasks-1b58e334-b1db-5be4-8d8a-3602898074c8-attr-7-key" class="er entityLabel"/><rect height="21" width="35.688690185546875" y="171" x="0" class="er attributeBoxEven"/><text style="dominant-baseline: middle; font-size: 10.2px;" transform="translate(5,181.5)" y="0" x="0" id="text-entity-steptasks-1b58e334-b1db-5be4-8d8a-3602898074c8-attr-8-type" class="er entityLabel">jsonb</text><rect height="21" width="79.82562255859375" y="171" x="35.688690185546875" class="er attributeBoxEven"/><text style="dominant-baseline: middle; font-size: 10.2px;" transform="translate(40.688690185546875,181.5)" y="0" x="0" id="text-entity-steptasks-1b58e334-b1db-5be4-8d8a-3602898074c8-attr-8-name" class="er entityLabel">output</text><rect height="21" width="39.643310546875" y="171" x="115.51431274414062" class="er attributeBoxEven"/><text style="dominant-baseline: middle; font-size: 10.2px;" transform="translate(120.51431274414062,181.5)" y="0" x="0" id="text-entity-steptasks-1b58e334-b1db-5be4-8d8a-3602898074c8-attr-8-key" class="er entityLabel"/></g><rect height="14" width="19.359375" y="162.9656982421875" x="136.1065673828125" class="er relationshipLabelBox"/><text style="text-anchor: middle; dominant-baseline: middle; font-size: 12px;" y="169.9656982421875" x="145.7862548828125" id="rel1" class="er relationshipLabel">has</text><rect height="14" width="60.703125" y="166.01365661621094" x="371.4222717285156" class="er relationshipLabelBox"/><text style="text-anchor: middle; dominant-baseline: middle; font-size: 12px;" y="173.01365661621094" x="401.7738342285156" id="rel2" class="er relationshipLabel">instantiates</text><rect height="14.000030517578125" width="66.078125" y="504.1608428955078" x="48.530029296875" class="er relationshipLabelBox"/><text style="text-anchor: middle; dominant-baseline: middle; font-size: 12px;" y="511.1608581542969" x="81.569091796875" id="rel3" class="er relationshipLabel">depends_on</text><rect height="14" width="43.36328125" y="486.63604736328125" x="230.5489501953125" class="er relationshipLabelBox"/><text style="text-anchor: middle; dominant-baseline: middle; font-size: 12px;" y="493.63604736328125" x="252.2305908203125" id="rel4" class="er relationshipLabel">state_of</text><rect height="14" width="44.703125" y="469.3721618652344" x="400.2439880371094" class="er relationshipLabelBox"/><text style="text-anchor: middle; dominant-baseline: middle; font-size: 12px;" y="476.3721618652344" x="422.5955505371094" id="rel5" class="er relationshipLabel">contains</text><rect height="14" width="40.6875" y="755" x="354.21624755859375" class="er relationshipLabelBox"/><text style="text-anchor: middle; dominant-baseline: middle; font-size: 12px;" y="762" x="374.55999755859375" id="rel6" class="er relationshipLabel">spawns</text></svg>